<svg width="114" height="53" viewBox="0 0 114 53" fill="none" xmlns="http://www.w3.org/2000/svg">
<path d="M1.77545 26.1599C2.62397 14.6202 12.7373 5.42541 23.6232 2.25037C34.9585 -1.05577 43.1312 8.44061 45.3916 18.4676C45.8497 20.4996 46.2566 23.1533 45.5502 25.2083C44.6824 27.7327 43.009 25.8053 42.616 24.1774C40.6423 16.0006 45.1021 1.87624 55.1457 1.97282C67.5469 2.09206 74.0011 12.2166 73.9007 23.6619C73.8806 25.951 73.7503 30.0771 71.8785 31.949C70.0501 33.7774 69.6691 29.145 69.8166 28.539C73.1107 15.0099 90.4755 16.0973 99.5549 21.7983C104.117 24.6631 108.414 28.5648 110.736 33.535C113.784 40.0569 111.872 44.6744 110.974 51.1401" stroke="black" stroke-width="3" stroke-linecap="round"/>
</svg>
