<svg width="214" height="225" viewBox="0 0 214 225" fill="none" xmlns="http://www.w3.org/2000/svg">
<rect width="208" height="225" rx="15" fill="#E6CEFF"/>
<path d="M21.581 68.185H23.689L21.904 72.231H20.544L21.581 68.185ZM27.3302 67.42V80H25.3922V67.42H27.3302ZM33.9376 80.153C33.0536 80.153 32.2546 79.9547 31.5406 79.558C30.8266 79.15 30.2656 78.5833 29.8576 77.858C29.4496 77.1213 29.2456 76.2713 29.2456 75.308C29.2456 74.356 29.4553 73.5117 29.8746 72.775C30.2939 72.0383 30.8663 71.4717 31.5916 71.075C32.3169 70.6783 33.1273 70.48 34.0226 70.48C34.9179 70.48 35.7283 70.6783 36.4536 71.075C37.1789 71.4717 37.7513 72.0383 38.1706 72.775C38.5899 73.5117 38.7996 74.356 38.7996 75.308C38.7996 76.26 38.5843 77.1043 38.1536 77.841C37.7229 78.5777 37.1336 79.15 36.3856 79.558C35.6489 79.9547 34.8329 80.153 33.9376 80.153ZM33.9376 78.47C34.4363 78.47 34.9009 78.351 35.3316 78.113C35.7736 77.875 36.1306 77.518 36.4026 77.042C36.6746 76.566 36.8106 75.988 36.8106 75.308C36.8106 74.628 36.6803 74.0557 36.4196 73.591C36.1589 73.115 35.8133 72.758 35.3826 72.52C34.9519 72.282 34.4873 72.163 33.9886 72.163C33.4899 72.163 33.0253 72.282 32.5946 72.52C32.1753 72.758 31.8409 73.115 31.5916 73.591C31.3423 74.0557 31.2176 74.628 31.2176 75.308C31.2176 76.3167 31.4726 77.0987 31.9826 77.654C32.5039 78.198 33.1556 78.47 33.9376 78.47ZM42.6534 71.993C42.9368 71.517 43.3108 71.1487 43.7754 70.888C44.2514 70.616 44.8124 70.48 45.4584 70.48V72.486H44.9654C44.2061 72.486 43.6281 72.6787 43.2314 73.064C42.8461 73.4493 42.6534 74.118 42.6534 75.07V80H40.7154V70.633H42.6534V71.993ZM46.5938 75.274C46.5938 74.3333 46.7865 73.5003 47.1718 72.775C47.5685 72.0497 48.1012 71.4887 48.7698 71.092C49.4498 70.684 50.1978 70.48 51.0138 70.48C51.7505 70.48 52.3908 70.6273 52.9348 70.922C53.4902 71.2053 53.9322 71.5623 54.2608 71.993V70.633H56.2158V80H54.2608V78.606C53.9322 79.048 53.4845 79.4163 52.9178 79.711C52.3512 80.0057 51.7052 80.153 50.9798 80.153C50.1752 80.153 49.4385 79.949 48.7698 79.541C48.1012 79.1217 47.5685 78.5437 47.1718 77.807C46.7865 77.059 46.5938 76.2147 46.5938 75.274ZM54.2608 75.308C54.2608 74.662 54.1248 74.101 53.8528 73.625C53.5922 73.149 53.2465 72.7863 52.8158 72.537C52.3852 72.2877 51.9205 72.163 51.4218 72.163C50.9232 72.163 50.4585 72.2877 50.0278 72.537C49.5972 72.775 49.2458 73.132 48.9738 73.608C48.7132 74.0727 48.5828 74.628 48.5828 75.274C48.5828 75.92 48.7132 76.4867 48.9738 76.974C49.2458 77.4613 49.5972 77.8353 50.0278 78.096C50.4698 78.3453 50.9345 78.47 51.4218 78.47C51.9205 78.47 52.3852 78.3453 52.8158 78.096C53.2465 77.8467 53.5922 77.484 53.8528 77.008C54.1248 76.5207 54.2608 75.954 54.2608 75.308ZM60.0193 72.231H57.9113L59.6963 68.185H61.0563L60.0193 72.231ZM64.2725 81.819C66.0575 81.207 67.2135 79.813 67.2135 77.977C67.2135 76.787 66.7035 76.005 65.7515 76.005C65.0715 76.005 64.4595 76.43 64.4595 77.229C64.4595 78.045 65.0375 78.453 65.7345 78.453C66.0575 78.453 66.3975 78.368 66.6355 78.062L65.7175 76.77L66.0405 78.215C66.0405 79.49 65.2755 80.357 63.8815 80.935L64.2725 81.819ZM83.2785 80.153C82.5418 80.153 81.8788 80.0227 81.2895 79.762C80.7115 79.49 80.2525 79.1273 79.9125 78.674C79.5725 78.2093 79.3912 77.6937 79.3685 77.127H81.3745C81.4085 77.5237 81.5955 77.858 81.9355 78.13C82.2868 78.3907 82.7232 78.521 83.2445 78.521C83.7885 78.521 84.2078 78.419 84.5025 78.215C84.8085 77.9997 84.9615 77.7277 84.9615 77.399C84.9615 77.0477 84.7915 76.787 84.4515 76.617C84.1228 76.447 83.5958 76.26 82.8705 76.056C82.1678 75.8633 81.5955 75.6763 81.1535 75.495C80.7115 75.3137 80.3262 75.036 79.9975 74.662C79.6802 74.288 79.5215 73.795 79.5215 73.183C79.5215 72.6843 79.6688 72.231 79.9635 71.823C80.2582 71.4037 80.6775 71.075 81.2215 70.837C81.7768 70.599 82.4115 70.48 83.1255 70.48C84.1908 70.48 85.0465 70.752 85.6925 71.296C86.3498 71.8287 86.7012 72.5597 86.7465 73.489H84.8085C84.7745 73.0697 84.6045 72.7353 84.2985 72.486C83.9925 72.2367 83.5788 72.112 83.0575 72.112C82.5475 72.112 82.1565 72.2083 81.8845 72.401C81.6125 72.5937 81.4765 72.8487 81.4765 73.166C81.4765 73.4153 81.5672 73.625 81.7485 73.795C81.9298 73.965 82.1508 74.101 82.4115 74.203C82.6722 74.2937 83.0575 74.4127 83.5675 74.56C84.2475 74.7413 84.8028 74.9283 85.2335 75.121C85.6755 75.3023 86.0552 75.5743 86.3725 75.937C86.6898 76.2997 86.8542 76.7813 86.8655 77.382C86.8655 77.9147 86.7182 78.3907 86.4235 78.81C86.1288 79.2293 85.7095 79.558 85.1655 79.796C84.6328 80.034 84.0038 80.153 83.2785 80.153ZM97.5446 75.087C97.5446 75.4383 97.5219 75.7557 97.4766 76.039H90.3196C90.3762 76.787 90.6539 77.3877 91.1526 77.841C91.6512 78.2943 92.2632 78.521 92.9886 78.521C94.0312 78.521 94.7679 78.0847 95.1986 77.212H97.2896C97.0062 78.0733 96.4906 78.7817 95.7426 79.337C95.0059 79.881 94.0879 80.153 92.9886 80.153C92.0932 80.153 91.2886 79.9547 90.5746 79.558C89.8719 79.15 89.3166 78.5833 88.9086 77.858C88.5119 77.1213 88.3136 76.2713 88.3136 75.308C88.3136 74.3447 88.5062 73.5003 88.8916 72.775C89.2882 72.0383 89.8379 71.4717 90.5406 71.075C91.2546 70.6783 92.0706 70.48 92.9886 70.48C93.8726 70.48 94.6602 70.6727 95.3516 71.058C96.0429 71.4433 96.5812 71.9873 96.9666 72.69C97.3519 73.3813 97.5446 74.1803 97.5446 75.087ZM95.5216 74.475C95.5102 73.761 95.2552 73.1887 94.7566 72.758C94.2579 72.3273 93.6402 72.112 92.9036 72.112C92.2349 72.112 91.6626 72.3273 91.1866 72.758C90.7106 73.1773 90.4272 73.7497 90.3366 74.475H95.5216ZM101.39 71.993C101.673 71.517 102.047 71.1487 102.512 70.888C102.988 70.616 103.549 70.48 104.195 70.48V72.486H103.702C102.942 72.486 102.364 72.6787 101.968 73.064C101.582 73.4493 101.39 74.118 101.39 75.07V80H99.4518V70.633H101.39V71.993ZM106.962 69.392C106.611 69.392 106.316 69.273 106.078 69.035C105.84 68.797 105.721 68.5023 105.721 68.151C105.721 67.7997 105.84 67.505 106.078 67.267C106.316 67.029 106.611 66.91 106.962 66.91C107.302 66.91 107.591 67.029 107.829 67.267C108.067 67.505 108.186 67.7997 108.186 68.151C108.186 68.5023 108.067 68.797 107.829 69.035C107.591 69.273 107.302 69.392 106.962 69.392ZM107.914 70.633V80H105.976V70.633H107.914ZM114.386 72.214H112.652V80H110.697V72.214H109.592V70.633H110.697V69.97C110.697 68.8933 110.98 68.1113 111.547 67.624C112.125 67.1253 113.026 66.876 114.25 66.876V68.491C113.66 68.491 113.247 68.6043 113.009 68.831C112.771 69.0463 112.652 69.426 112.652 69.97V70.633H114.386V72.214ZM117.259 72.979C116.908 72.979 116.613 72.86 116.375 72.622C116.137 72.384 116.018 72.0893 116.018 71.738C116.018 71.3867 116.137 71.092 116.375 70.854C116.613 70.616 116.908 70.497 117.259 70.497C117.599 70.497 117.888 70.616 118.126 70.854C118.364 71.092 118.483 71.3867 118.483 71.738C118.483 72.0893 118.364 72.384 118.126 72.622C117.888 72.86 117.599 72.979 117.259 72.979ZM118.687 77.671L116.63 82.363H115.372L116.579 77.671H118.687ZM22.533 98.231H20.425L22.21 94.185H23.57L22.533 98.231ZM33.6542 97.704C33.6542 98.3047 33.5125 98.8713 33.2292 99.404C32.9459 99.9367 32.4925 100.373 31.8692 100.713C31.2459 101.042 30.4469 101.206 29.4722 101.206H27.3302V106H25.3922V94.185H29.4722C30.3789 94.185 31.1439 94.3437 31.7672 94.661C32.4019 94.967 32.8722 95.3863 33.1782 95.919C33.4955 96.4517 33.6542 97.0467 33.6542 97.704ZM29.4722 99.625C30.2089 99.625 30.7585 99.4607 31.1212 99.132C31.4839 98.792 31.6652 98.316 31.6652 97.704C31.6652 96.412 30.9342 95.766 29.4722 95.766H27.3302V99.625H29.4722ZM39.5655 106.153C38.6815 106.153 37.8825 105.955 37.1685 105.558C36.4545 105.15 35.8935 104.583 35.4855 103.858C35.0775 103.121 34.8735 102.271 34.8735 101.308C34.8735 100.356 35.0832 99.5117 35.5025 98.775C35.9219 98.0383 36.4942 97.4717 37.2195 97.075C37.9449 96.6783 38.7552 96.48 39.6505 96.48C40.5459 96.48 41.3562 96.6783 42.0815 97.075C42.8069 97.4717 43.3792 98.0383 43.7985 98.775C44.2179 99.5117 44.4275 100.356 44.4275 101.308C44.4275 102.26 44.2122 103.104 43.7815 103.841C43.3509 104.578 42.7615 105.15 42.0135 105.558C41.2769 105.955 40.4609 106.153 39.5655 106.153ZM39.5655 104.47C40.0642 104.47 40.5289 104.351 40.9595 104.113C41.4015 103.875 41.7585 103.518 42.0305 103.042C42.3025 102.566 42.4385 101.988 42.4385 101.308C42.4385 100.628 42.3082 100.056 42.0475 99.591C41.7869 99.115 41.4412 98.758 41.0105 98.52C40.5799 98.282 40.1152 98.163 39.6165 98.163C39.1179 98.163 38.6532 98.282 38.2225 98.52C37.8032 98.758 37.4689 99.115 37.2195 99.591C36.9702 100.056 36.8455 100.628 36.8455 101.308C36.8455 102.317 37.1005 103.099 37.6105 103.654C38.1319 104.198 38.7835 104.47 39.5655 104.47ZM48.2814 98.01C48.61 97.5793 49.0577 97.2167 49.6244 96.922C50.191 96.6273 50.8314 96.48 51.5454 96.48C52.3614 96.48 53.1037 96.684 53.7724 97.092C54.4524 97.4887 54.985 98.0497 55.3704 98.775C55.7557 99.5003 55.9484 100.333 55.9484 101.274C55.9484 102.215 55.7557 103.059 55.3704 103.807C54.985 104.544 54.4524 105.122 53.7724 105.541C53.1037 105.949 52.3614 106.153 51.5454 106.153C50.8314 106.153 50.1967 106.011 49.6414 105.728C49.086 105.433 48.6327 105.071 48.2814 104.64V110.454H46.3434V96.633H48.2814V98.01ZM53.9764 101.274C53.9764 100.628 53.8404 100.073 53.5684 99.608C53.3077 99.132 52.9564 98.775 52.5144 98.537C52.0837 98.2877 51.619 98.163 51.1204 98.163C50.633 98.163 50.1684 98.2877 49.7264 98.537C49.2957 98.7863 48.9444 99.149 48.6724 99.625C48.4117 100.101 48.2814 100.662 48.2814 101.308C48.2814 101.954 48.4117 102.521 48.6724 103.008C48.9444 103.484 49.2957 103.847 49.7264 104.096C50.1684 104.345 50.633 104.47 51.1204 104.47C51.619 104.47 52.0837 104.345 52.5144 104.096C52.9564 103.835 53.3077 103.461 53.5684 102.974C53.8404 102.487 53.9764 101.92 53.9764 101.274ZM59.8028 98.01C60.1315 97.5793 60.5792 97.2167 61.1458 96.922C61.7125 96.6273 62.3528 96.48 63.0668 96.48C63.8828 96.48 64.6252 96.684 65.2938 97.092C65.9738 97.4887 66.5065 98.0497 66.8918 98.775C67.2772 99.5003 67.4698 100.333 67.4698 101.274C67.4698 102.215 67.2772 103.059 66.8918 103.807C66.5065 104.544 65.9738 105.122 65.2938 105.541C64.6252 105.949 63.8828 106.153 63.0668 106.153C62.3528 106.153 61.7182 106.011 61.1628 105.728C60.6075 105.433 60.1542 105.071 59.8028 104.64V110.454H57.8648V96.633H59.8028V98.01ZM65.4978 101.274C65.4978 100.628 65.3618 100.073 65.0898 99.608C64.8292 99.132 64.4778 98.775 64.0358 98.537C63.6052 98.2877 63.1405 98.163 62.6418 98.163C62.1545 98.163 61.6898 98.2877 61.2478 98.537C60.8172 98.7863 60.4658 99.149 60.1938 99.625C59.9332 100.101 59.8028 100.662 59.8028 101.308C59.8028 101.954 59.9332 102.521 60.1938 103.008C60.4658 103.484 60.8172 103.847 61.2478 104.096C61.6898 104.345 62.1545 104.47 62.6418 104.47C63.1405 104.47 63.6052 104.345 64.0358 104.096C64.4778 103.835 64.8292 103.461 65.0898 102.974C65.3618 102.487 65.4978 101.92 65.4978 101.274ZM70.3723 95.392C70.021 95.392 69.7263 95.273 69.4883 95.035C69.2503 94.797 69.1313 94.5023 69.1313 94.151C69.1313 93.7997 69.2503 93.505 69.4883 93.267C69.7263 93.029 70.021 92.91 70.3723 92.91C70.7123 92.91 71.0013 93.029 71.2393 93.267C71.4773 93.505 71.5963 93.7997 71.5963 94.151C71.5963 94.5023 71.4773 94.797 71.2393 95.035C71.0013 95.273 70.7123 95.392 70.3723 95.392ZM71.3243 96.633V106H69.3863V96.633H71.3243ZM78.5948 96.48C79.3314 96.48 79.9888 96.633 80.5668 96.939C81.1561 97.245 81.6151 97.6983 81.9438 98.299C82.2724 98.8997 82.4368 99.625 82.4368 100.475V106H80.5158V100.764C80.5158 99.9253 80.3061 99.285 79.8868 98.843C79.4674 98.3897 78.8951 98.163 78.1698 98.163C77.4444 98.163 76.8664 98.3897 76.4358 98.843C76.0164 99.285 75.8068 99.9253 75.8068 100.764V106H73.8688V96.633H75.8068V97.704C76.1241 97.3187 76.5264 97.0183 77.0138 96.803C77.5124 96.5877 78.0394 96.48 78.5948 96.48ZM88.3088 106.153C87.5721 106.153 86.9091 106.023 86.3198 105.762C85.7418 105.49 85.2828 105.127 84.9428 104.674C84.6028 104.209 84.4215 103.694 84.3988 103.127H86.4048C86.4388 103.524 86.6258 103.858 86.9658 104.13C87.3171 104.391 87.7535 104.521 88.2748 104.521C88.8188 104.521 89.2381 104.419 89.5328 104.215C89.8388 104 89.9918 103.728 89.9918 103.399C89.9918 103.048 89.8218 102.787 89.4818 102.617C89.1531 102.447 88.6261 102.26 87.9008 102.056C87.1981 101.863 86.6258 101.676 86.1838 101.495C85.7418 101.314 85.3565 101.036 85.0278 100.662C84.7105 100.288 84.5518 99.795 84.5518 99.183C84.5518 98.6843 84.6991 98.231 84.9938 97.823C85.2885 97.4037 85.7078 97.075 86.2518 96.837C86.8071 96.599 87.4418 96.48 88.1558 96.48C89.2211 96.48 90.0768 96.752 90.7228 97.296C91.3801 97.8287 91.7315 98.5597 91.7768 99.489H89.8388C89.8048 99.0697 89.6348 98.7353 89.3288 98.486C89.0228 98.2367 88.6091 98.112 88.0878 98.112C87.5778 98.112 87.1868 98.2083 86.9148 98.401C86.6428 98.5937 86.5068 98.8487 86.5068 99.166C86.5068 99.4153 86.5975 99.625 86.7788 99.795C86.9601 99.965 87.1811 100.101 87.4418 100.203C87.7025 100.294 88.0878 100.413 88.5978 100.56C89.2778 100.741 89.8331 100.928 90.2638 101.121C90.7058 101.302 91.0855 101.574 91.4028 101.937C91.7201 102.3 91.8845 102.781 91.8958 103.382C91.8958 103.915 91.7485 104.391 91.4538 104.81C91.1591 105.229 90.7398 105.558 90.1958 105.796C89.6631 106.034 89.0341 106.153 88.3088 106.153ZM94.2958 94.185H96.4038L94.6188 98.231H93.2588L94.2958 94.185ZM100.232 103.671L98.175 108.363H96.917L98.124 103.671H100.232ZM105.325 106.153C104.589 106.153 103.926 106.023 103.336 105.762C102.758 105.49 102.299 105.127 101.959 104.674C101.619 104.209 101.438 103.694 101.415 103.127H103.421C103.455 103.524 103.642 103.858 103.982 104.13C104.334 104.391 104.77 104.521 105.291 104.521C105.835 104.521 106.255 104.419 106.549 104.215C106.855 104 107.008 103.728 107.008 103.399C107.008 103.048 106.838 102.787 106.498 102.617C106.17 102.447 105.643 102.26 104.917 102.056C104.215 101.863 103.642 101.676 103.2 101.495C102.758 101.314 102.373 101.036 102.044 100.662C101.727 100.288 101.568 99.795 101.568 99.183C101.568 98.6843 101.716 98.231 102.01 97.823C102.305 97.4037 102.724 97.075 103.268 96.837C103.824 96.599 104.458 96.48 105.172 96.48C106.238 96.48 107.093 96.752 107.739 97.296C108.397 97.8287 108.748 98.5597 108.793 99.489H106.855C106.821 99.0697 106.651 98.7353 106.345 98.486C106.039 98.2367 105.626 98.112 105.104 98.112C104.594 98.112 104.203 98.2083 103.931 98.401C103.659 98.5937 103.523 98.8487 103.523 99.166C103.523 99.4153 103.614 99.625 103.795 99.795C103.977 99.965 104.198 100.101 104.458 100.203C104.719 100.294 105.104 100.413 105.614 100.56C106.294 100.741 106.85 100.928 107.28 101.121C107.722 101.302 108.102 101.574 108.419 101.937C108.737 102.3 108.901 102.781 108.912 103.382C108.912 103.915 108.765 104.391 108.47 104.81C108.176 105.229 107.756 105.558 107.212 105.796C106.68 106.034 106.051 106.153 105.325 106.153ZM110.36 101.274C110.36 100.333 110.553 99.5003 110.938 98.775C111.335 98.0497 111.868 97.4887 112.536 97.092C113.216 96.684 113.964 96.48 114.78 96.48C115.517 96.48 116.157 96.6273 116.701 96.922C117.257 97.2053 117.699 97.5623 118.027 97.993V96.633H119.982V106H118.027V104.606C117.699 105.048 117.251 105.416 116.684 105.711C116.118 106.006 115.472 106.153 114.746 106.153C113.942 106.153 113.205 105.949 112.536 105.541C111.868 105.122 111.335 104.544 110.938 103.807C110.553 103.059 110.36 102.215 110.36 101.274ZM118.027 101.308C118.027 100.662 117.891 100.101 117.619 99.625C117.359 99.149 117.013 98.7863 116.582 98.537C116.152 98.2877 115.687 98.163 115.188 98.163C114.69 98.163 114.225 98.2877 113.794 98.537C113.364 98.775 113.012 99.132 112.74 99.608C112.48 100.073 112.349 100.628 112.349 101.274C112.349 101.92 112.48 102.487 112.74 102.974C113.012 103.461 113.364 103.835 113.794 104.096C114.236 104.345 114.701 104.47 115.188 104.47C115.687 104.47 116.152 104.345 116.582 104.096C117.013 103.847 117.359 103.484 117.619 103.008C117.891 102.521 118.027 101.954 118.027 101.308ZM127.254 96.48C127.991 96.48 128.648 96.633 129.226 96.939C129.815 97.245 130.274 97.6983 130.603 98.299C130.932 98.8997 131.096 99.625 131.096 100.475V106H129.175V100.764C129.175 99.9253 128.965 99.285 128.546 98.843C128.127 98.3897 127.554 98.163 126.829 98.163C126.104 98.163 125.526 98.3897 125.095 98.843C124.676 99.285 124.466 99.9253 124.466 100.764V106H122.528V96.633H124.466V97.704C124.783 97.3187 125.186 97.0183 125.673 96.803C126.172 96.5877 126.699 96.48 127.254 96.48ZM136.968 106.153C136.231 106.153 135.568 106.023 134.979 105.762C134.401 105.49 133.942 105.127 133.602 104.674C133.262 104.209 133.081 103.694 133.058 103.127H135.064C135.098 103.524 135.285 103.858 135.625 104.13C135.976 104.391 136.413 104.521 136.934 104.521C137.478 104.521 137.897 104.419 138.192 104.215C138.498 104 138.651 103.728 138.651 103.399C138.651 103.048 138.481 102.787 138.141 102.617C137.812 102.447 137.285 102.26 136.56 102.056C135.857 101.863 135.285 101.676 134.843 101.495C134.401 101.314 134.016 101.036 133.687 100.662C133.37 100.288 133.211 99.795 133.211 99.183C133.211 98.6843 133.358 98.231 133.653 97.823C133.948 97.4037 134.367 97.075 134.911 96.837C135.466 96.599 136.101 96.48 136.815 96.48C137.88 96.48 138.736 96.752 139.382 97.296C140.039 97.8287 140.391 98.5597 140.436 99.489H138.498C138.464 99.0697 138.294 98.7353 137.988 98.486C137.682 98.2367 137.268 98.112 136.747 98.112C136.237 98.112 135.846 98.2083 135.574 98.401C135.302 98.5937 135.166 98.8487 135.166 99.166C135.166 99.4153 135.257 99.625 135.438 99.795C135.619 99.965 135.84 100.101 136.101 100.203C136.362 100.294 136.747 100.413 137.257 100.56C137.937 100.741 138.492 100.928 138.923 101.121C139.365 101.302 139.745 101.574 140.062 101.937C140.379 102.3 140.544 102.781 140.555 103.382C140.555 103.915 140.408 104.391 140.113 104.81C139.818 105.229 139.399 105.558 138.855 105.796C138.322 106.034 137.693 106.153 136.968 106.153ZM149.84 99.03V100.662H142.853V99.03H149.84ZM155.993 106.153C155.257 106.153 154.594 106.023 154.004 105.762C153.426 105.49 152.967 105.127 152.627 104.674C152.287 104.209 152.106 103.694 152.083 103.127H154.089C154.123 103.524 154.31 103.858 154.65 104.13C155.002 104.391 155.438 104.521 155.959 104.521C156.503 104.521 156.923 104.419 157.217 104.215C157.523 104 157.676 103.728 157.676 103.399C157.676 103.048 157.506 102.787 157.166 102.617C156.838 102.447 156.311 102.26 155.585 102.056C154.883 101.863 154.31 101.676 153.868 101.495C153.426 101.314 153.041 101.036 152.712 100.662C152.395 100.288 152.236 99.795 152.236 99.183C152.236 98.6843 152.384 98.231 152.678 97.823C152.973 97.4037 153.392 97.075 153.936 96.837C154.492 96.599 155.126 96.48 155.84 96.48C156.906 96.48 157.761 96.752 158.407 97.296C159.065 97.8287 159.416 98.5597 159.461 99.489H157.523C157.489 99.0697 157.319 98.7353 157.013 98.486C156.707 98.2367 156.294 98.112 155.772 98.112C155.262 98.112 154.871 98.2083 154.599 98.401C154.327 98.5937 154.191 98.8487 154.191 99.166C154.191 99.4153 154.282 99.625 154.463 99.795C154.645 99.965 154.866 100.101 155.126 100.203C155.387 100.294 155.772 100.413 156.282 100.56C156.962 100.741 157.518 100.928 157.948 101.121C158.39 101.302 158.77 101.574 159.087 101.937C159.405 102.3 159.569 102.781 159.58 103.382C159.58 103.915 159.433 104.391 159.138 104.81C158.844 105.229 158.424 105.558 157.88 105.796C157.348 106.034 156.719 106.153 155.993 106.153ZM170.259 101.087C170.259 101.438 170.237 101.756 170.191 102.039H163.034C163.091 102.787 163.369 103.388 163.867 103.841C164.366 104.294 164.978 104.521 165.703 104.521C166.746 104.521 167.483 104.085 167.913 103.212H170.004C169.721 104.073 169.205 104.782 168.457 105.337C167.721 105.881 166.803 106.153 165.703 106.153C164.808 106.153 164.003 105.955 163.289 105.558C162.587 105.15 162.031 104.583 161.623 103.858C161.227 103.121 161.028 102.271 161.028 101.308C161.028 100.345 161.221 99.5003 161.606 98.775C162.003 98.0383 162.553 97.4717 163.255 97.075C163.969 96.6783 164.785 96.48 165.703 96.48C166.587 96.48 167.375 96.6727 168.066 97.058C168.758 97.4433 169.296 97.9873 169.681 98.69C170.067 99.3813 170.259 100.18 170.259 101.087ZM168.236 100.475C168.225 99.761 167.97 99.1887 167.471 98.758C166.973 98.3273 166.355 98.112 165.618 98.112C164.95 98.112 164.377 98.3273 163.901 98.758C163.425 99.1773 163.142 99.7497 163.051 100.475H168.236ZM174.105 97.993C174.388 97.517 174.762 97.1487 175.227 96.888C175.703 96.616 176.264 96.48 176.91 96.48V98.486H176.417C175.657 98.486 175.079 98.6787 174.683 99.064C174.297 99.4493 174.105 100.118 174.105 101.07V106H172.167V96.633H174.105V97.993ZM179.677 95.392C179.326 95.392 179.031 95.273 178.793 95.035C178.555 94.797 178.436 94.5023 178.436 94.151C178.436 93.7997 178.555 93.505 178.793 93.267C179.031 93.029 179.326 92.91 179.677 92.91C180.017 92.91 180.306 93.029 180.544 93.267C180.782 93.505 180.901 93.7997 180.901 94.151C180.901 94.5023 180.782 94.797 180.544 95.035C180.306 95.273 180.017 95.392 179.677 95.392ZM180.629 96.633V106H178.691V96.633H180.629ZM187.1 98.214H185.366V106H183.411V98.214H182.306V96.633H183.411V95.97C183.411 94.8933 183.695 94.1113 184.261 93.624C184.839 93.1253 185.74 92.876 186.964 92.876V94.491C186.375 94.491 185.961 94.6043 185.723 94.831C185.485 95.0463 185.366 95.426 185.366 95.97V96.633H187.1V98.214ZM189.974 98.979C189.623 98.979 189.328 98.86 189.09 98.622C188.852 98.384 188.733 98.0893 188.733 97.738C188.733 97.3867 188.852 97.092 189.09 96.854C189.328 96.616 189.623 96.497 189.974 96.497C190.314 96.497 190.603 96.616 190.841 96.854C191.079 97.092 191.198 97.3867 191.198 97.738C191.198 98.0893 191.079 98.384 190.841 98.622C190.603 98.86 190.314 98.979 189.974 98.979ZM191.402 103.671L189.345 108.363H188.087L189.294 103.671H191.402Z" fill="black"/>
<path d="M33.684 147.48C33.5593 146.959 33.3327 146.568 33.004 146.307C32.6753 146.046 32.2163 145.916 31.627 145.916C30.7317 145.916 30.063 146.262 29.621 146.953C29.179 147.633 28.9467 148.766 28.924 150.353C29.2187 149.854 29.6493 149.469 30.216 149.197C30.7827 148.925 31.3947 148.789 32.052 148.789C32.8 148.789 33.4573 148.953 34.024 149.282C34.602 149.599 35.0497 150.064 35.367 150.676C35.6957 151.288 35.86 152.019 35.86 152.869C35.86 153.662 35.7013 154.371 35.384 154.994C35.078 155.617 34.619 156.11 34.007 156.473C33.395 156.824 32.6583 157 31.797 157C30.6297 157 29.7117 156.745 29.043 156.235C28.3857 155.714 27.921 154.983 27.649 154.042C27.3883 153.101 27.258 151.928 27.258 150.523C27.258 146.375 28.72 144.301 31.644 144.301C32.7773 144.301 33.667 144.607 34.313 145.219C34.9703 145.831 35.3557 146.585 35.469 147.48H33.684ZM31.627 150.421C30.9357 150.421 30.3463 150.631 29.859 151.05C29.383 151.458 29.145 152.053 29.145 152.835C29.145 153.617 29.366 154.24 29.808 154.705C30.2613 155.158 30.8903 155.385 31.695 155.385C32.409 155.385 32.97 155.164 33.378 154.722C33.7973 154.28 34.007 153.691 34.007 152.954C34.007 152.183 33.803 151.571 33.395 151.118C32.9983 150.653 32.409 150.421 31.627 150.421ZM45.9172 146.273H40.2222V149.656C40.4602 149.339 40.8116 149.072 41.2762 148.857C41.7522 148.642 42.2566 148.534 42.7892 148.534C43.7412 148.534 44.5119 148.738 45.1012 149.146C45.7019 149.554 46.1269 150.07 46.3762 150.693C46.6369 151.316 46.7672 151.974 46.7672 152.665C46.7672 153.504 46.6029 154.252 46.2742 154.909C45.9569 155.555 45.4752 156.065 44.8292 156.439C44.1946 156.813 43.4126 157 42.4832 157C41.2479 157 40.2562 156.694 39.5082 156.082C38.7602 155.47 38.3126 154.66 38.1652 153.651H40.0522C40.1769 154.184 40.4546 154.609 40.8852 154.926C41.3159 155.232 41.8542 155.385 42.5002 155.385C43.3049 155.385 43.9056 155.141 44.3022 154.654C44.7102 154.167 44.9142 153.521 44.9142 152.716C44.9142 151.9 44.7102 151.277 44.3022 150.846C43.8942 150.404 43.2936 150.183 42.5002 150.183C41.9449 150.183 41.4746 150.325 41.0892 150.608C40.7152 150.88 40.4432 151.254 40.2732 151.73H38.4372V144.573H45.9172V146.273ZM50.9776 149.01C51.3063 148.579 51.754 148.217 52.3206 147.922C52.8873 147.627 53.5276 147.48 54.2416 147.48C55.0576 147.48 55.8 147.684 56.4686 148.092C57.1486 148.489 57.6813 149.05 58.0666 149.775C58.452 150.5 58.6446 151.333 58.6446 152.274C58.6446 153.215 58.452 154.059 58.0666 154.807C57.6813 155.544 57.1486 156.122 56.4686 156.541C55.8 156.949 55.0576 157.153 54.2416 157.153C53.5276 157.153 52.893 157.011 52.3376 156.728C51.7823 156.433 51.329 156.071 50.9776 155.64V161.454H49.0396V147.633H50.9776V149.01ZM56.6726 152.274C56.6726 151.628 56.5366 151.073 56.2646 150.608C56.004 150.132 55.6526 149.775 55.2106 149.537C54.78 149.288 54.3153 149.163 53.8166 149.163C53.3293 149.163 52.8646 149.288 52.4226 149.537C51.992 149.786 51.6406 150.149 51.3686 150.625C51.108 151.101 50.9776 151.662 50.9776 152.308C50.9776 152.954 51.108 153.521 51.3686 154.008C51.6406 154.484 51.992 154.847 52.4226 155.096C52.8646 155.345 53.3293 155.47 53.8166 155.47C54.3153 155.47 54.78 155.345 55.2106 155.096C55.6526 154.835 56.004 154.461 56.2646 153.974C56.5366 153.487 56.6726 152.92 56.6726 152.274ZM64.5731 152.257L67.5991 157H65.4061L63.3831 153.821L61.4791 157H59.4561L62.4821 152.393L59.4561 147.633H61.6491L63.6721 150.812L65.5761 147.633H67.5991L64.5731 152.257ZM70.2005 149.979C69.8492 149.979 69.5545 149.86 69.3165 149.622C69.0785 149.384 68.9595 149.089 68.9595 148.738C68.9595 148.387 69.0785 148.092 69.3165 147.854C69.5545 147.616 69.8492 147.497 70.2005 147.497C70.5405 147.497 70.8295 147.616 71.0675 147.854C71.3055 148.092 71.4245 148.387 71.4245 148.738C71.4245 149.089 71.3055 149.384 71.0675 149.622C70.8295 149.86 70.5405 149.979 70.2005 149.979ZM71.6285 154.671L69.5715 159.363H68.3135L69.5205 154.671H71.6285Z" fill="black"/>
<path d="M25.808 43.66V44.776H22.268V47.236H25.028V48.352H22.268V52H20.9V43.66H25.808ZM29.9438 52.108C29.3198 52.108 28.7558 51.968 28.2518 51.688C27.7478 51.4 27.3518 51 27.0638 50.488C26.7758 49.968 26.6318 49.368 26.6318 48.688C26.6318 48.016 26.7798 47.42 27.0758 46.9C27.3718 46.38 27.7758 45.98 28.2878 45.7C28.7998 45.42 29.3718 45.28 30.0038 45.28C30.6358 45.28 31.2078 45.42 31.7198 45.7C32.2318 45.98 32.6358 46.38 32.9318 46.9C33.2278 47.42 33.3758 48.016 33.3758 48.688C33.3758 49.36 33.2238 49.956 32.9198 50.476C32.6158 50.996 32.1998 51.4 31.6718 51.688C31.1518 51.968 30.5758 52.108 29.9438 52.108ZM29.9438 50.92C30.2958 50.92 30.6238 50.836 30.9278 50.668C31.2398 50.5 31.4918 50.248 31.6838 49.912C31.8758 49.576 31.9718 49.168 31.9718 48.688C31.9718 48.208 31.8798 47.804 31.6958 47.476C31.5118 47.14 31.2678 46.888 30.9638 46.72C30.6598 46.552 30.3318 46.468 29.9798 46.468C29.6278 46.468 29.2998 46.552 28.9958 46.72C28.6998 46.888 28.4638 47.14 28.2878 47.476C28.1118 47.804 28.0238 48.208 28.0238 48.688C28.0238 49.4 28.2038 49.952 28.5638 50.344C28.9318 50.728 29.3918 50.92 29.9438 50.92ZM38.0641 45.28C38.5841 45.28 39.0481 45.388 39.4561 45.604C39.8721 45.82 40.1961 46.14 40.4281 46.564C40.6601 46.988 40.7761 47.5 40.7761 48.1V52H39.4201V48.304C39.4201 47.712 39.2721 47.26 38.9761 46.948C38.6801 46.628 38.2761 46.468 37.7641 46.468C37.2521 46.468 36.8441 46.628 36.5401 46.948C36.2441 47.26 36.0961 47.712 36.0961 48.304V52H34.7281V45.388H36.0961V46.144C36.3201 45.872 36.6041 45.66 36.9481 45.508C37.3001 45.356 37.6721 45.28 38.0641 45.28ZM44.1171 46.504V50.164C44.1171 50.412 44.1731 50.592 44.2851 50.704C44.4051 50.808 44.6051 50.86 44.8851 50.86H45.7251V52H44.6451C44.0291 52 43.5571 51.856 43.2291 51.568C42.9011 51.28 42.7371 50.812 42.7371 50.164V46.504H41.9571V45.388H42.7371V43.744H44.1171V45.388H45.7251V46.504H44.1171ZM52.0619 47.08V48.232H47.1299V47.08H52.0619ZM56.7775 46.504H55.5535V52H54.1735V46.504H53.3935V45.388H54.1735V44.92C54.1735 44.16 54.3735 43.608 54.7735 43.264C55.1815 42.912 55.8175 42.736 56.6815 42.736V43.876C56.2655 43.876 55.9735 43.956 55.8055 44.116C55.6375 44.268 55.5535 44.536 55.5535 44.92V45.388H56.7775V46.504ZM57.5338 48.664C57.5338 48 57.6698 47.412 57.9418 46.9C58.2218 46.388 58.5978 45.992 59.0698 45.712C59.5498 45.424 60.0778 45.28 60.6538 45.28C61.1738 45.28 61.6258 45.384 62.0098 45.592C62.4018 45.792 62.7138 46.044 62.9458 46.348V45.388H64.3258V52H62.9458V51.016C62.7138 51.328 62.3978 51.588 61.9978 51.796C61.5978 52.004 61.1418 52.108 60.6298 52.108C60.0618 52.108 59.5418 51.964 59.0698 51.676C58.5978 51.38 58.2218 50.972 57.9418 50.452C57.6698 49.924 57.5338 49.328 57.5338 48.664ZM62.9458 48.688C62.9458 48.232 62.8498 47.836 62.6578 47.5C62.4738 47.164 62.2298 46.908 61.9258 46.732C61.6218 46.556 61.2938 46.468 60.9418 46.468C60.5898 46.468 60.2618 46.556 59.9578 46.732C59.6538 46.9 59.4058 47.152 59.2138 47.488C59.0298 47.816 58.9378 48.208 58.9378 48.664C58.9378 49.12 59.0298 49.52 59.2138 49.864C59.4058 50.208 59.6538 50.472 59.9578 50.656C60.2698 50.832 60.5978 50.92 60.9418 50.92C61.2938 50.92 61.6218 50.832 61.9258 50.656C62.2298 50.48 62.4738 50.224 62.6578 49.888C62.8498 49.544 62.9458 49.144 62.9458 48.688ZM74.1267 45.28C74.6467 45.28 75.1107 45.388 75.5187 45.604C75.9347 45.82 76.2587 46.14 76.4907 46.564C76.7307 46.988 76.8507 47.5 76.8507 48.1V52H75.4947V48.304C75.4947 47.712 75.3467 47.26 75.0507 46.948C74.7547 46.628 74.3507 46.468 73.8387 46.468C73.3267 46.468 72.9187 46.628 72.6147 46.948C72.3187 47.26 72.1707 47.712 72.1707 48.304V52H70.8147V48.304C70.8147 47.712 70.6667 47.26 70.3707 46.948C70.0747 46.628 69.6707 46.468 69.1587 46.468C68.6467 46.468 68.2387 46.628 67.9347 46.948C67.6387 47.26 67.4907 47.712 67.4907 48.304V52H66.1227V45.388H67.4907V46.144C67.7147 45.872 67.9987 45.66 68.3427 45.508C68.6867 45.356 69.0547 45.28 69.4467 45.28C69.9747 45.28 70.4467 45.392 70.8627 45.616C71.2787 45.84 71.5987 46.164 71.8227 46.588C72.0227 46.188 72.3347 45.872 72.7587 45.64C73.1827 45.4 73.6387 45.28 74.1267 45.28ZM79.2874 44.512C79.0394 44.512 78.8314 44.428 78.6634 44.26C78.4954 44.092 78.4114 43.884 78.4114 43.636C78.4114 43.388 78.4954 43.18 78.6634 43.012C78.8314 42.844 79.0394 42.76 79.2874 42.76C79.5274 42.76 79.7314 42.844 79.8994 43.012C80.0674 43.18 80.1514 43.388 80.1514 43.636C80.1514 43.884 80.0674 44.092 79.8994 44.26C79.7314 44.428 79.5274 44.512 79.2874 44.512ZM79.9594 45.388V52H78.5914V45.388H79.9594ZM83.1235 43.12V52H81.7555V43.12H83.1235ZM90.8715 45.388L86.8155 55.108H85.3995L86.7435 51.892L84.1395 45.388H85.6635L87.5235 50.428L89.4555 45.388H90.8715ZM101.009 45.388V52H99.6411V51.22C99.4251 51.492 99.1411 51.708 98.7891 51.868C98.4451 52.02 98.0771 52.096 97.6851 52.096C97.1651 52.096 96.6971 51.988 96.2811 51.772C95.8731 51.556 95.5491 51.236 95.3091 50.812C95.0771 50.388 94.9611 49.876 94.9611 49.276V45.388H96.3171V49.072C96.3171 49.664 96.4651 50.12 96.7611 50.44C97.0571 50.752 97.4611 50.908 97.9731 50.908C98.4851 50.908 98.8891 50.752 99.1851 50.44C99.4891 50.12 99.6411 49.664 99.6411 49.072V45.388H101.009ZM105.214 52.108C104.694 52.108 104.226 52.016 103.81 51.832C103.402 51.64 103.078 51.384 102.838 51.064C102.598 50.736 102.47 50.372 102.454 49.972H103.87C103.894 50.252 104.026 50.488 104.266 50.68C104.514 50.864 104.822 50.956 105.19 50.956C105.574 50.956 105.87 50.884 106.078 50.74C106.294 50.588 106.402 50.396 106.402 50.164C106.402 49.916 106.282 49.732 106.042 49.612C105.81 49.492 105.438 49.36 104.926 49.216C104.43 49.08 104.026 48.948 103.714 48.82C103.402 48.692 103.13 48.496 102.898 48.232C102.674 47.968 102.562 47.62 102.562 47.188C102.562 46.836 102.666 46.516 102.874 46.228C103.082 45.932 103.378 45.7 103.762 45.532C104.154 45.364 104.602 45.28 105.106 45.28C105.858 45.28 106.462 45.472 106.918 45.856C107.382 46.232 107.63 46.748 107.662 47.404H106.294C106.27 47.108 106.15 46.872 105.934 46.696C105.718 46.52 105.426 46.432 105.058 46.432C104.698 46.432 104.422 46.5 104.23 46.636C104.038 46.772 103.942 46.952 103.942 47.176C103.942 47.352 104.006 47.5 104.134 47.62C104.262 47.74 104.418 47.836 104.602 47.908C104.786 47.972 105.058 48.056 105.418 48.16C105.898 48.288 106.29 48.42 106.594 48.556C106.906 48.684 107.174 48.876 107.398 49.132C107.622 49.388 107.738 49.728 107.746 50.152C107.746 50.528 107.642 50.864 107.434 51.16C107.226 51.456 106.93 51.688 106.546 51.856C106.17 52.024 105.726 52.108 105.214 52.108ZM115.284 48.532C115.284 48.78 115.268 49.004 115.236 49.204H110.184C110.224 49.732 110.42 50.156 110.772 50.476C111.124 50.796 111.556 50.956 112.068 50.956C112.804 50.956 113.324 50.648 113.628 50.032H115.104C114.904 50.64 114.54 51.14 114.012 51.532C113.492 51.916 112.844 52.108 112.068 52.108C111.436 52.108 110.868 51.968 110.364 51.688C109.868 51.4 109.476 51 109.188 50.488C108.908 49.968 108.768 49.368 108.768 48.688C108.768 48.008 108.904 47.412 109.176 46.9C109.456 46.38 109.844 45.98 110.34 45.7C110.844 45.42 111.42 45.28 112.068 45.28C112.692 45.28 113.248 45.416 113.736 45.688C114.224 45.96 114.604 46.344 114.876 46.84C115.148 47.328 115.284 47.892 115.284 48.532ZM113.856 48.1C113.848 47.596 113.668 47.192 113.316 46.888C112.964 46.584 112.528 46.432 112.008 46.432C111.536 46.432 111.132 46.584 110.796 46.888C110.46 47.184 110.26 47.588 110.196 48.1H113.856ZM116.174 48.664C116.174 48 116.31 47.412 116.582 46.9C116.862 46.388 117.238 45.992 117.71 45.712C118.19 45.424 118.722 45.28 119.306 45.28C119.738 45.28 120.162 45.376 120.578 45.568C121.002 45.752 121.338 46 121.586 46.312V43.12H122.966V52H121.586V51.004C121.362 51.324 121.05 51.588 120.65 51.796C120.258 52.004 119.806 52.108 119.294 52.108C118.718 52.108 118.19 51.964 117.71 51.676C117.238 51.38 116.862 50.972 116.582 50.452C116.31 49.924 116.174 49.328 116.174 48.664ZM121.586 48.688C121.586 48.232 121.49 47.836 121.298 47.5C121.114 47.164 120.87 46.908 120.566 46.732C120.262 46.556 119.934 46.468 119.582 46.468C119.23 46.468 118.902 46.556 118.598 46.732C118.294 46.9 118.046 47.152 117.854 47.488C117.67 47.816 117.578 48.208 117.578 48.664C117.578 49.12 117.67 49.52 117.854 49.864C118.046 50.208 118.294 50.472 118.598 50.656C118.91 50.832 119.238 50.92 119.582 50.92C119.934 50.92 120.262 50.832 120.566 50.656C120.87 50.48 121.114 50.224 121.298 49.888C121.49 49.544 121.586 49.144 121.586 48.688ZM128.432 52.084C128.184 52.084 127.976 52 127.808 51.832C127.64 51.664 127.556 51.456 127.556 51.208C127.556 50.96 127.64 50.752 127.808 50.584C127.976 50.416 128.184 50.332 128.432 50.332C128.672 50.332 128.876 50.416 129.044 50.584C129.212 50.752 129.296 50.96 129.296 51.208C129.296 51.456 129.212 51.664 129.044 51.832C128.876 52 128.672 52.084 128.432 52.084ZM128.432 47.044C128.184 47.044 127.976 46.96 127.808 46.792C127.64 46.624 127.556 46.416 127.556 46.168C127.556 45.92 127.64 45.712 127.808 45.544C127.976 45.376 128.184 45.292 128.432 45.292C128.672 45.292 128.876 45.376 129.044 45.544C129.212 45.712 129.296 45.92 129.296 46.168C129.296 46.416 129.212 46.624 129.044 46.792C128.876 46.96 128.672 47.044 128.432 47.044Z" fill="black" fill-opacity="0.39"/>
<path d="M25.808 123.66V124.776H22.268V127.236H25.028V128.352H22.268V132H20.9V123.66H25.808ZM29.9438 132.108C29.3198 132.108 28.7558 131.968 28.2518 131.688C27.7478 131.4 27.3518 131 27.0638 130.488C26.7758 129.968 26.6318 129.368 26.6318 128.688C26.6318 128.016 26.7798 127.42 27.0758 126.9C27.3718 126.38 27.7758 125.98 28.2878 125.7C28.7998 125.42 29.3718 125.28 30.0038 125.28C30.6358 125.28 31.2078 125.42 31.7198 125.7C32.2318 125.98 32.6358 126.38 32.9318 126.9C33.2278 127.42 33.3758 128.016 33.3758 128.688C33.3758 129.36 33.2238 129.956 32.9198 130.476C32.6158 130.996 32.1998 131.4 31.6718 131.688C31.1518 131.968 30.5758 132.108 29.9438 132.108ZM29.9438 130.92C30.2958 130.92 30.6238 130.836 30.9278 130.668C31.2398 130.5 31.4918 130.248 31.6838 129.912C31.8758 129.576 31.9718 129.168 31.9718 128.688C31.9718 128.208 31.8798 127.804 31.6958 127.476C31.5118 127.14 31.2678 126.888 30.9638 126.72C30.6598 126.552 30.3318 126.468 29.9798 126.468C29.6278 126.468 29.2998 126.552 28.9958 126.72C28.6998 126.888 28.4638 127.14 28.2878 127.476C28.1118 127.804 28.0238 128.208 28.0238 128.688C28.0238 129.4 28.2038 129.952 28.5638 130.344C28.9318 130.728 29.3918 130.92 29.9438 130.92ZM38.0641 125.28C38.5841 125.28 39.0481 125.388 39.4561 125.604C39.8721 125.82 40.1961 126.14 40.4281 126.564C40.6601 126.988 40.7761 127.5 40.7761 128.1V132H39.4201V128.304C39.4201 127.712 39.2721 127.26 38.9761 126.948C38.6801 126.628 38.2761 126.468 37.7641 126.468C37.2521 126.468 36.8441 126.628 36.5401 126.948C36.2441 127.26 36.0961 127.712 36.0961 128.304V132H34.7281V125.388H36.0961V126.144C36.3201 125.872 36.6041 125.66 36.9481 125.508C37.3001 125.356 37.6721 125.28 38.0641 125.28ZM44.1171 126.504V130.164C44.1171 130.412 44.1731 130.592 44.2851 130.704C44.4051 130.808 44.6051 130.86 44.8851 130.86H45.7251V132H44.6451C44.0291 132 43.5571 131.856 43.2291 131.568C42.9011 131.28 42.7371 130.812 42.7371 130.164V126.504H41.9571V125.388H42.7371V123.744H44.1171V125.388H45.7251V126.504H44.1171ZM52.0619 127.08V128.232H47.1299V127.08H52.0619ZM56.4055 132.108C55.8855 132.108 55.4175 132.016 55.0015 131.832C54.5935 131.64 54.2695 131.384 54.0295 131.064C53.7895 130.736 53.6615 130.372 53.6455 129.972H55.0615C55.0855 130.252 55.2175 130.488 55.4575 130.68C55.7055 130.864 56.0135 130.956 56.3815 130.956C56.7655 130.956 57.0615 130.884 57.2695 130.74C57.4855 130.588 57.5935 130.396 57.5935 130.164C57.5935 129.916 57.4735 129.732 57.2335 129.612C57.0015 129.492 56.6295 129.36 56.1175 129.216C55.6215 129.08 55.2175 128.948 54.9055 128.82C54.5935 128.692 54.3215 128.496 54.0895 128.232C53.8655 127.968 53.7535 127.62 53.7535 127.188C53.7535 126.836 53.8575 126.516 54.0655 126.228C54.2735 125.932 54.5695 125.7 54.9535 125.532C55.3455 125.364 55.7935 125.28 56.2975 125.28C57.0495 125.28 57.6535 125.472 58.1095 125.856C58.5735 126.232 58.8215 126.748 58.8535 127.404H57.4855C57.4615 127.108 57.3415 126.872 57.1255 126.696C56.9095 126.52 56.6175 126.432 56.2495 126.432C55.8895 126.432 55.6135 126.5 55.4215 126.636C55.2295 126.772 55.1335 126.952 55.1335 127.176C55.1335 127.352 55.1975 127.5 55.3255 127.62C55.4535 127.74 55.6095 127.836 55.7935 127.908C55.9775 127.972 56.2495 128.056 56.6095 128.16C57.0895 128.288 57.4815 128.42 57.7855 128.556C58.0975 128.684 58.3655 128.876 58.5895 129.132C58.8135 129.388 58.9295 129.728 58.9375 130.152C58.9375 130.528 58.8335 130.864 58.6255 131.16C58.4175 131.456 58.1215 131.688 57.7375 131.856C57.3615 132.024 56.9175 132.108 56.4055 132.108ZM61.1116 124.512C60.8636 124.512 60.6556 124.428 60.4876 124.26C60.3196 124.092 60.2356 123.884 60.2356 123.636C60.2356 123.388 60.3196 123.18 60.4876 123.012C60.6556 122.844 60.8636 122.76 61.1116 122.76C61.3516 122.76 61.5556 122.844 61.7236 123.012C61.8916 123.18 61.9756 123.388 61.9756 123.636C61.9756 123.884 61.8916 124.092 61.7236 124.26C61.5556 124.428 61.3516 124.512 61.1116 124.512ZM61.7836 125.388V132H60.4156V125.388H61.7836ZM64.7917 130.884H67.7917V132H63.2077V130.884L66.2197 126.504H63.2077V125.388H67.7917V126.504L64.7917 130.884ZM75.2881 128.532C75.2881 128.78 75.2721 129.004 75.2401 129.204H70.1881C70.2281 129.732 70.4241 130.156 70.7761 130.476C71.1281 130.796 71.5601 130.956 72.0721 130.956C72.8081 130.956 73.3281 130.648 73.6321 130.032H75.1081C74.9081 130.64 74.5441 131.14 74.0161 131.532C73.4961 131.916 72.8481 132.108 72.0721 132.108C71.4401 132.108 70.8721 131.968 70.3681 131.688C69.8721 131.4 69.4801 131 69.1921 130.488C68.9121 129.968 68.7721 129.368 68.7721 128.688C68.7721 128.008 68.9081 127.412 69.1801 126.9C69.4601 126.38 69.8481 125.98 70.3441 125.7C70.8481 125.42 71.4241 125.28 72.0721 125.28C72.6961 125.28 73.2521 125.416 73.7401 125.688C74.2281 125.96 74.6081 126.344 74.8801 126.84C75.1521 127.328 75.2881 127.892 75.2881 128.532ZM73.8601 128.1C73.8521 127.596 73.6721 127.192 73.3201 126.888C72.9681 126.584 72.5321 126.432 72.0121 126.432C71.5401 126.432 71.1361 126.584 70.8001 126.888C70.4641 127.184 70.2641 127.588 70.2001 128.1H73.8601ZM77.1864 132.084C76.9384 132.084 76.7304 132 76.5624 131.832C76.3944 131.664 76.3104 131.456 76.3104 131.208C76.3104 130.96 76.3944 130.752 76.5624 130.584C76.7304 130.416 76.9384 130.332 77.1864 130.332C77.4264 130.332 77.6304 130.416 77.7984 130.584C77.9664 130.752 78.0504 130.96 78.0504 131.208C78.0504 131.456 77.9664 131.664 77.7984 131.832C77.6304 132 77.4264 132.084 77.1864 132.084ZM77.1864 127.044C76.9384 127.044 76.7304 126.96 76.5624 126.792C76.3944 126.624 76.3104 126.416 76.3104 126.168C76.3104 125.92 76.3944 125.712 76.5624 125.544C76.7304 125.376 76.9384 125.292 77.1864 125.292C77.4264 125.292 77.6304 125.376 77.7984 125.544C77.9664 125.712 78.0504 125.92 78.0504 126.168C78.0504 126.416 77.9664 126.624 77.7984 126.792C77.6304 126.96 77.4264 127.044 77.1864 127.044Z" fill="black" fill-opacity="0.39"/>
<path d="M23.648 187.084C23.088 187.084 22.584 186.988 22.136 186.796C21.688 186.596 21.336 186.316 21.08 185.956C20.824 185.596 20.696 185.176 20.696 184.696H22.16C22.192 185.056 22.332 185.352 22.58 185.584C22.836 185.816 23.192 185.932 23.648 185.932C24.12 185.932 24.488 185.82 24.752 185.596C25.016 185.364 25.148 185.068 25.148 184.708C25.148 184.428 25.064 184.2 24.896 184.024C24.736 183.848 24.532 183.712 24.284 183.616C24.044 183.52 23.708 183.416 23.276 183.304C22.732 183.16 22.288 183.016 21.944 182.872C21.608 182.72 21.32 182.488 21.08 182.176C20.84 181.864 20.72 181.448 20.72 180.928C20.72 180.448 20.84 180.028 21.08 179.668C21.32 179.308 21.656 179.032 22.088 178.84C22.52 178.648 23.02 178.552 23.588 178.552C24.396 178.552 25.056 178.756 25.568 179.164C26.088 179.564 26.376 180.116 26.432 180.82H24.92C24.896 180.516 24.752 180.256 24.488 180.04C24.224 179.824 23.876 179.716 23.444 179.716C23.052 179.716 22.732 179.816 22.484 180.016C22.236 180.216 22.112 180.504 22.112 180.88C22.112 181.136 22.188 181.348 22.34 181.516C22.5 181.676 22.7 181.804 22.94 181.9C23.18 181.996 23.508 182.1 23.924 182.212C24.476 182.364 24.924 182.516 25.268 182.668C25.62 182.82 25.916 183.056 26.156 183.376C26.404 183.688 26.528 184.108 26.528 184.636C26.528 185.06 26.412 185.46 26.18 185.836C25.956 186.212 25.624 186.516 25.184 186.748C24.752 186.972 24.24 187.084 23.648 187.084ZM31.0102 187.108C30.3862 187.108 29.8222 186.968 29.3182 186.688C28.8142 186.4 28.4182 186 28.1302 185.488C27.8422 184.968 27.6982 184.368 27.6982 183.688C27.6982 183.016 27.8462 182.42 28.1422 181.9C28.4382 181.38 28.8422 180.98 29.3542 180.7C29.8662 180.42 30.4382 180.28 31.0702 180.28C31.7022 180.28 32.2742 180.42 32.7862 180.7C33.2982 180.98 33.7022 181.38 33.9982 181.9C34.2942 182.42 34.4422 183.016 34.4422 183.688C34.4422 184.36 34.2902 184.956 33.9862 185.476C33.6822 185.996 33.2662 186.4 32.7382 186.688C32.2182 186.968 31.6422 187.108 31.0102 187.108ZM31.0102 185.92C31.3622 185.92 31.6902 185.836 31.9942 185.668C32.3062 185.5 32.5582 185.248 32.7502 184.912C32.9422 184.576 33.0382 184.168 33.0382 183.688C33.0382 183.208 32.9462 182.804 32.7622 182.476C32.5782 182.14 32.3342 181.888 32.0302 181.72C31.7262 181.552 31.3982 181.468 31.0462 181.468C30.6942 181.468 30.3662 181.552 30.0622 181.72C29.7662 181.888 29.5302 182.14 29.3542 182.476C29.1782 182.804 29.0902 183.208 29.0902 183.688C29.0902 184.4 29.2702 184.952 29.6302 185.344C29.9982 185.728 30.4582 185.92 31.0102 185.92ZM41.7825 180.388V187H40.4145V186.22C40.1985 186.492 39.9145 186.708 39.5625 186.868C39.2185 187.02 38.8505 187.096 38.4585 187.096C37.9385 187.096 37.4705 186.988 37.0545 186.772C36.6465 186.556 36.3225 186.236 36.0825 185.812C35.8505 185.388 35.7345 184.876 35.7345 184.276V180.388H37.0905V184.072C37.0905 184.664 37.2385 185.12 37.5345 185.44C37.8305 185.752 38.2345 185.908 38.7465 185.908C39.2585 185.908 39.6625 185.752 39.9585 185.44C40.2625 185.12 40.4145 184.664 40.4145 184.072V180.388H41.7825ZM44.9555 181.348C45.1555 181.012 45.4195 180.752 45.7475 180.568C46.0835 180.376 46.4795 180.28 46.9355 180.28V181.696H46.5875C46.0515 181.696 45.6435 181.832 45.3635 182.104C45.0915 182.376 44.9555 182.848 44.9555 183.52V187H43.5875V180.388H44.9555V181.348ZM47.737 183.688C47.737 183.008 47.873 182.412 48.145 181.9C48.425 181.38 48.809 180.98 49.297 180.7C49.785 180.42 50.345 180.28 50.977 180.28C51.777 180.28 52.437 180.472 52.957 180.856C53.485 181.232 53.841 181.772 54.025 182.476H52.549C52.429 182.148 52.237 181.892 51.973 181.708C51.709 181.524 51.377 181.432 50.977 181.432C50.417 181.432 49.969 181.632 49.633 182.032C49.305 182.424 49.141 182.976 49.141 183.688C49.141 184.4 49.305 184.956 49.633 185.356C49.969 185.756 50.417 185.956 50.977 185.956C51.769 185.956 52.293 185.608 52.549 184.912H54.025C53.833 185.584 53.473 186.12 52.945 186.52C52.417 186.912 51.761 187.108 50.977 187.108C50.345 187.108 49.785 186.968 49.297 186.688C48.809 186.4 48.425 186 48.145 185.488C47.873 184.968 47.737 184.368 47.737 183.688ZM61.4483 183.532C61.4483 183.78 61.4323 184.004 61.4003 184.204H56.3483C56.3883 184.732 56.5843 185.156 56.9363 185.476C57.2883 185.796 57.7203 185.956 58.2323 185.956C58.9683 185.956 59.4883 185.648 59.7923 185.032H61.2683C61.0683 185.64 60.7043 186.14 60.1763 186.532C59.6563 186.916 59.0083 187.108 58.2323 187.108C57.6003 187.108 57.0323 186.968 56.5283 186.688C56.0323 186.4 55.6403 186 55.3523 185.488C55.0723 184.968 54.9323 184.368 54.9323 183.688C54.9323 183.008 55.0683 182.412 55.3403 181.9C55.6203 181.38 56.0083 180.98 56.5043 180.7C57.0083 180.42 57.5843 180.28 58.2323 180.28C58.8563 180.28 59.4123 180.416 59.9003 180.688C60.3883 180.96 60.7683 181.344 61.0403 181.84C61.3123 182.328 61.4483 182.892 61.4483 183.532ZM60.0203 183.1C60.0123 182.596 59.8323 182.192 59.4803 181.888C59.1283 181.584 58.6923 181.432 58.1723 181.432C57.7003 181.432 57.2963 181.584 56.9603 181.888C56.6243 182.184 56.4243 182.588 56.3603 183.1H60.0203ZM66.4637 187.084C66.2157 187.084 66.0077 187 65.8397 186.832C65.6717 186.664 65.5877 186.456 65.5877 186.208C65.5877 185.96 65.6717 185.752 65.8397 185.584C66.0077 185.416 66.2157 185.332 66.4637 185.332C66.7037 185.332 66.9077 185.416 67.0757 185.584C67.2437 185.752 67.3277 185.96 67.3277 186.208C67.3277 186.456 67.2437 186.664 67.0757 186.832C66.9077 187 66.7037 187.084 66.4637 187.084ZM66.4637 182.044C66.2157 182.044 66.0077 181.96 65.8397 181.792C65.6717 181.624 65.5877 181.416 65.5877 181.168C65.5877 180.92 65.6717 180.712 65.8397 180.544C66.0077 180.376 66.2157 180.292 66.4637 180.292C66.7037 180.292 66.9077 180.376 67.0757 180.544C67.2437 180.712 67.3277 180.92 67.3277 181.168C67.3277 181.416 67.2437 181.624 67.0757 181.792C66.9077 181.96 66.7037 182.044 66.4637 182.044ZM74.6343 180.28C75.1463 180.28 75.5983 180.384 75.9903 180.592C76.3903 180.792 76.7023 181.044 76.9263 181.348V180.388H78.3063V187.108C78.3063 187.716 78.1783 188.256 77.9223 188.728C77.6663 189.208 77.2943 189.584 76.8063 189.856C76.3263 190.128 75.7503 190.264 75.0783 190.264C74.1823 190.264 73.4383 190.052 72.8463 189.628C72.2543 189.212 71.9183 188.644 71.8383 187.924H73.1943C73.2983 188.268 73.5183 188.544 73.8543 188.752C74.1983 188.968 74.6063 189.076 75.0783 189.076C75.6303 189.076 76.0743 188.908 76.4103 188.572C76.7543 188.236 76.9263 187.748 76.9263 187.108V186.004C76.6943 186.316 76.3783 186.58 75.9783 186.796C75.5863 187.004 75.1383 187.108 74.6343 187.108C74.0583 187.108 73.5303 186.964 73.0503 186.676C72.5783 186.38 72.2023 185.972 71.9223 185.452C71.6503 184.924 71.5143 184.328 71.5143 183.664C71.5143 183 71.6503 182.412 71.9223 181.9C72.2023 181.388 72.5783 180.992 73.0503 180.712C73.5303 180.424 74.0583 180.28 74.6343 180.28ZM76.9263 183.688C76.9263 183.232 76.8303 182.836 76.6383 182.5C76.4543 182.164 76.2103 181.908 75.9063 181.732C75.6023 181.556 75.2743 181.468 74.9223 181.468C74.5703 181.468 74.2423 181.556 73.9383 181.732C73.6343 181.9 73.3863 182.152 73.1943 182.488C73.0103 182.816 72.9183 183.208 72.9183 183.664C72.9183 184.12 73.0103 184.52 73.1943 184.864C73.3863 185.208 73.6343 185.472 73.9383 185.656C74.2503 185.832 74.5783 185.92 74.9223 185.92C75.2743 185.92 75.6023 185.832 75.9063 185.656C76.2103 185.48 76.4543 185.224 76.6383 184.888C76.8303 184.544 76.9263 184.144 76.9263 183.688ZM82.9711 187.108C82.3471 187.108 81.7831 186.968 81.2791 186.688C80.7751 186.4 80.3791 186 80.0911 185.488C79.8031 184.968 79.6591 184.368 79.6591 183.688C79.6591 183.016 79.8071 182.42 80.1031 181.9C80.3991 181.38 80.8031 180.98 81.3151 180.7C81.8271 180.42 82.3991 180.28 83.0311 180.28C83.6631 180.28 84.2351 180.42 84.7471 180.7C85.2591 180.98 85.6631 181.38 85.9591 181.9C86.2551 182.42 86.4031 183.016 86.4031 183.688C86.4031 184.36 86.2511 184.956 85.9471 185.476C85.6431 185.996 85.2271 186.4 84.6991 186.688C84.1791 186.968 83.6031 187.108 82.9711 187.108ZM82.9711 185.92C83.3231 185.92 83.6511 185.836 83.9551 185.668C84.2671 185.5 84.5191 185.248 84.7111 184.912C84.9031 184.576 84.9991 184.168 84.9991 183.688C84.9991 183.208 84.9071 182.804 84.7231 182.476C84.5391 182.14 84.2951 181.888 83.9911 181.72C83.6871 181.552 83.3591 181.468 83.0071 181.468C82.6551 181.468 82.3271 181.552 82.0231 181.72C81.7271 181.888 81.4911 182.14 81.3151 182.476C81.1391 182.804 81.0511 183.208 81.0511 183.688C81.0511 184.4 81.2311 184.952 81.5911 185.344C81.9591 185.728 82.4191 185.92 82.9711 185.92ZM90.6235 187.108C89.9995 187.108 89.4355 186.968 88.9315 186.688C88.4275 186.4 88.0315 186 87.7435 185.488C87.4555 184.968 87.3115 184.368 87.3115 183.688C87.3115 183.016 87.4595 182.42 87.7555 181.9C88.0515 181.38 88.4555 180.98 88.9675 180.7C89.4795 180.42 90.0515 180.28 90.6835 180.28C91.3155 180.28 91.8875 180.42 92.3995 180.7C92.9115 180.98 93.3155 181.38 93.6115 181.9C93.9075 182.42 94.0555 183.016 94.0555 183.688C94.0555 184.36 93.9035 184.956 93.5995 185.476C93.2955 185.996 92.8795 186.4 92.3515 186.688C91.8315 186.968 91.2555 187.108 90.6235 187.108ZM90.6235 185.92C90.9755 185.92 91.3035 185.836 91.6075 185.668C91.9195 185.5 92.1715 185.248 92.3635 184.912C92.5555 184.576 92.6515 184.168 92.6515 183.688C92.6515 183.208 92.5595 182.804 92.3755 182.476C92.1915 182.14 91.9475 181.888 91.6435 181.72C91.3395 181.552 91.0115 181.468 90.6595 181.468C90.3075 181.468 89.9795 181.552 89.6755 181.72C89.3795 181.888 89.1435 182.14 88.9675 182.476C88.7915 182.804 88.7035 183.208 88.7035 183.688C88.7035 184.4 88.8835 184.952 89.2435 185.344C89.6115 185.728 90.0715 185.92 90.6235 185.92ZM98.0718 180.28C98.5838 180.28 99.0358 180.384 99.4278 180.592C99.8278 180.792 100.14 181.044 100.364 181.348V180.388H101.744V187.108C101.744 187.716 101.616 188.256 101.36 188.728C101.104 189.208 100.732 189.584 100.244 189.856C99.7638 190.128 99.1878 190.264 98.5158 190.264C97.6198 190.264 96.8758 190.052 96.2838 189.628C95.6918 189.212 95.3558 188.644 95.2758 187.924H96.6318C96.7358 188.268 96.9558 188.544 97.2918 188.752C97.6358 188.968 98.0438 189.076 98.5158 189.076C99.0678 189.076 99.5118 188.908 99.8478 188.572C100.192 188.236 100.364 187.748 100.364 187.108V186.004C100.132 186.316 99.8158 186.58 99.4158 186.796C99.0238 187.004 98.5758 187.108 98.0718 187.108C97.4958 187.108 96.9678 186.964 96.4878 186.676C96.0158 186.38 95.6398 185.972 95.3598 185.452C95.0878 184.924 94.9518 184.328 94.9518 183.664C94.9518 183 95.0878 182.412 95.3598 181.9C95.6398 181.388 96.0158 180.992 96.4878 180.712C96.9678 180.424 97.4958 180.28 98.0718 180.28ZM100.364 183.688C100.364 183.232 100.268 182.836 100.076 182.5C99.8918 182.164 99.6478 181.908 99.3438 181.732C99.0398 181.556 98.7118 181.468 98.3598 181.468C98.0078 181.468 97.6798 181.556 97.3758 181.732C97.0718 181.9 96.8238 182.152 96.6318 182.488C96.4478 182.816 96.3558 183.208 96.3558 183.664C96.3558 184.12 96.4478 184.52 96.6318 184.864C96.8238 185.208 97.0718 185.472 97.3758 185.656C97.6878 185.832 98.0158 185.92 98.3598 185.92C98.7118 185.92 99.0398 185.832 99.3438 185.656C99.6478 185.48 99.8918 185.224 100.076 184.888C100.268 184.544 100.364 184.144 100.364 183.688ZM104.909 178.12V187H103.541V178.12H104.909ZM112.765 183.532C112.765 183.78 112.749 184.004 112.717 184.204H107.665C107.705 184.732 107.901 185.156 108.253 185.476C108.605 185.796 109.037 185.956 109.549 185.956C110.285 185.956 110.805 185.648 111.109 185.032H112.585C112.385 185.64 112.021 186.14 111.493 186.532C110.973 186.916 110.325 187.108 109.549 187.108C108.917 187.108 108.349 186.968 107.845 186.688C107.349 186.4 106.957 186 106.669 185.488C106.389 184.968 106.249 184.368 106.249 183.688C106.249 183.008 106.385 182.412 106.657 181.9C106.937 181.38 107.325 180.98 107.821 180.7C108.325 180.42 108.901 180.28 109.549 180.28C110.173 180.28 110.729 180.416 111.217 180.688C111.705 180.96 112.085 181.344 112.357 181.84C112.629 182.328 112.765 182.892 112.765 183.532ZM111.337 183.1C111.329 182.596 111.149 182.192 110.797 181.888C110.445 181.584 110.009 181.432 109.489 181.432C109.017 181.432 108.613 181.584 108.277 181.888C107.941 182.184 107.741 182.588 107.677 183.1H111.337ZM120 181.504H118.776V187H117.396V181.504H116.616V180.388H117.396V179.92C117.396 179.16 117.596 178.608 117.996 178.264C118.404 177.912 119.04 177.736 119.904 177.736V178.876C119.488 178.876 119.196 178.956 119.028 179.116C118.86 179.268 118.776 179.536 118.776 179.92V180.388H120V181.504ZM124.081 187.108C123.457 187.108 122.893 186.968 122.389 186.688C121.885 186.4 121.489 186 121.201 185.488C120.913 184.968 120.769 184.368 120.769 183.688C120.769 183.016 120.917 182.42 121.213 181.9C121.509 181.38 121.913 180.98 122.425 180.7C122.937 180.42 123.509 180.28 124.141 180.28C124.773 180.28 125.345 180.42 125.857 180.7C126.369 180.98 126.773 181.38 127.069 181.9C127.365 182.42 127.513 183.016 127.513 183.688C127.513 184.36 127.361 184.956 127.057 185.476C126.753 185.996 126.337 186.4 125.809 186.688C125.289 186.968 124.713 187.108 124.081 187.108ZM124.081 185.92C124.433 185.92 124.761 185.836 125.065 185.668C125.377 185.5 125.629 185.248 125.821 184.912C126.013 184.576 126.109 184.168 126.109 183.688C126.109 183.208 126.017 182.804 125.833 182.476C125.649 182.14 125.405 181.888 125.101 181.72C124.797 181.552 124.469 181.468 124.117 181.468C123.765 181.468 123.437 181.552 123.133 181.72C122.837 181.888 122.601 182.14 122.425 182.476C122.249 182.804 122.161 183.208 122.161 183.688C122.161 184.4 122.341 184.952 122.701 185.344C123.069 185.728 123.529 185.92 124.081 185.92ZM132.201 180.28C132.721 180.28 133.185 180.388 133.593 180.604C134.009 180.82 134.333 181.14 134.565 181.564C134.797 181.988 134.913 182.5 134.913 183.1V187H133.557V183.304C133.557 182.712 133.409 182.26 133.113 181.948C132.817 181.628 132.413 181.468 131.901 181.468C131.389 181.468 130.981 181.628 130.677 181.948C130.381 182.26 130.233 182.712 130.233 183.304V187H128.865V180.388H130.233V181.144C130.457 180.872 130.741 180.66 131.085 180.508C131.437 180.356 131.809 180.28 132.201 180.28ZM138.254 181.504V185.164C138.254 185.412 138.31 185.592 138.422 185.704C138.542 185.808 138.742 185.86 139.022 185.86H139.862V187H138.782C138.166 187 137.694 186.856 137.366 186.568C137.038 186.28 136.874 185.812 136.874 185.164V181.504H136.094V180.388H136.874V178.744H138.254V180.388H139.862V181.504H138.254ZM143.523 187.108C143.003 187.108 142.535 187.016 142.119 186.832C141.711 186.64 141.387 186.384 141.147 186.064C140.907 185.736 140.779 185.372 140.763 184.972H142.179C142.203 185.252 142.335 185.488 142.575 185.68C142.823 185.864 143.131 185.956 143.499 185.956C143.883 185.956 144.179 185.884 144.387 185.74C144.603 185.588 144.711 185.396 144.711 185.164C144.711 184.916 144.591 184.732 144.351 184.612C144.119 184.492 143.747 184.36 143.235 184.216C142.739 184.08 142.335 183.948 142.023 183.82C141.711 183.692 141.439 183.496 141.207 183.232C140.983 182.968 140.871 182.62 140.871 182.188C140.871 181.836 140.975 181.516 141.183 181.228C141.391 180.932 141.687 180.7 142.071 180.532C142.463 180.364 142.911 180.28 143.415 180.28C144.167 180.28 144.771 180.472 145.227 180.856C145.691 181.232 145.939 181.748 145.971 182.404H144.603C144.579 182.108 144.459 181.872 144.243 181.696C144.027 181.52 143.735 181.432 143.367 181.432C143.007 181.432 142.731 181.5 142.539 181.636C142.347 181.772 142.251 181.952 142.251 182.176C142.251 182.352 142.315 182.5 142.443 182.62C142.571 182.74 142.727 182.836 142.911 182.908C143.095 182.972 143.367 183.056 143.727 183.16C144.207 183.288 144.599 183.42 144.903 183.556C145.215 183.684 145.483 183.876 145.707 184.132C145.931 184.388 146.047 184.728 146.055 185.152C146.055 185.528 145.951 185.864 145.743 186.16C145.535 186.456 145.239 186.688 144.855 186.856C144.479 187.024 144.035 187.108 143.523 187.108Z" fill="black"/>
</svg>
