<svg width="1101" height="589" viewBox="0 0 1101 589" fill="none" xmlns="http://www.w3.org/2000/svg">
<rect width="1101" height="589" rx="25" fill="#BC92FF"/>
<path d="M43.9007 370.043C27.548 353.432 0 410.241 0 410.241V512C0 512 151.65 482.008 112.561 449.75C100.199 439.549 75.1097 434.36 75.1097 434.36C75.1097 434.36 102.233 410.488 95.4996 394.162C86.9264 373.374 43.9007 414.376 43.9007 414.376C43.9007 414.376 55.725 382.054 43.9007 370.043Z" fill="#E6CEFF"/>
<path d="M976.454 105C979.154 114.779 986.767 136.085 984.732 148.087C982.765 159.682 970.306 157.17 962.848 155.23C960.83 154.706 957.065 150.765 957.065 152.849C957.065 154.683 961.184 161.3 961.544 162.034C963.612 166.247 975.238 184.895 971.692 189.814C968.953 193.613 946.67 178.015 943.912 176.321C941.719 174.973 939.785 172.706 937.222 172.465C932.46 172.019 937.136 182.056 937.676 186.809C937.923 188.981 941.418 223.149 939.037 223.149C933.877 223.149 923.868 210.025 921.008 207.048C915.041 200.839 910.017 193.676 904 187.659" stroke="#E6CEFF" stroke-width="3" stroke-linecap="round"/>
<path d="M421.764 236.455C417.56 236.455 413.682 235.48 410.129 233.53C406.619 231.537 403.824 228.785 401.744 225.275C399.707 221.722 398.689 217.735 398.689 213.315C398.689 208.895 399.707 204.93 401.744 201.42C403.824 197.91 406.619 195.18 410.129 193.23C413.682 191.237 417.56 190.24 421.764 190.24C426.01 190.24 429.889 191.237 433.399 193.23C436.952 195.18 439.747 197.91 441.784 201.42C443.82 204.93 444.839 208.895 444.839 213.315C444.839 217.735 443.82 221.722 441.784 225.275C439.747 228.785 436.952 231.537 433.399 233.53C429.889 235.48 426.01 236.455 421.764 236.455ZM421.764 230.02C424.754 230.02 427.419 229.348 429.759 228.005C432.099 226.618 433.919 224.668 435.219 222.155C436.562 219.598 437.234 216.652 437.234 213.315C437.234 209.978 436.562 207.053 435.219 204.54C433.919 202.027 432.099 200.098 429.759 198.755C427.419 197.412 424.754 196.74 421.764 196.74C418.774 196.74 416.109 197.412 413.769 198.755C411.429 200.098 409.587 202.027 408.244 204.54C406.944 207.053 406.294 209.978 406.294 213.315C406.294 216.652 406.944 219.598 408.244 222.155C409.587 224.668 411.429 226.618 413.769 228.005C416.109 229.348 418.774 230.02 421.764 230.02ZM459.54 205.45C460.797 203.803 462.509 202.417 464.675 201.29C466.842 200.163 469.29 199.6 472.02 199.6C475.14 199.6 477.979 200.38 480.535 201.94C483.135 203.457 485.172 205.602 486.645 208.375C488.119 211.148 488.855 214.333 488.855 217.93C488.855 221.527 488.119 224.755 486.645 227.615C485.172 230.432 483.135 232.642 480.535 234.245C477.979 235.805 475.14 236.585 472.02 236.585C469.29 236.585 466.864 236.043 464.74 234.96C462.617 233.833 460.884 232.447 459.54 230.8V253.03H452.13V200.185H459.54V205.45ZM481.315 217.93C481.315 215.46 480.795 213.337 479.755 211.56C478.759 209.74 477.415 208.375 475.725 207.465C474.079 206.512 472.302 206.035 470.395 206.035C468.532 206.035 466.755 206.512 465.065 207.465C463.419 208.418 462.075 209.805 461.035 211.625C460.039 213.445 459.54 215.59 459.54 218.06C459.54 220.53 460.039 222.697 461.035 224.56C462.075 226.38 463.419 227.767 465.065 228.72C466.755 229.673 468.532 230.15 470.395 230.15C472.302 230.15 474.079 229.673 475.725 228.72C477.415 227.723 478.759 226.293 479.755 224.43C480.795 222.567 481.315 220.4 481.315 217.93ZM529.008 217.215C529.008 218.558 528.921 219.772 528.748 220.855H501.383C501.6 223.715 502.661 226.012 504.568 227.745C506.475 229.478 508.815 230.345 511.588 230.345C515.575 230.345 518.391 228.677 520.038 225.34H528.033C526.95 228.633 524.978 231.342 522.118 233.465C519.301 235.545 515.791 236.585 511.588 236.585C508.165 236.585 505.088 235.827 502.358 234.31C499.671 232.75 497.548 230.583 495.988 227.81C494.471 224.993 493.713 221.743 493.713 218.06C493.713 214.377 494.45 211.148 495.923 208.375C497.44 205.558 499.541 203.392 502.228 201.875C504.958 200.358 508.078 199.6 511.588 199.6C514.968 199.6 517.98 200.337 520.623 201.81C523.266 203.283 525.325 205.363 526.798 208.05C528.271 210.693 529.008 213.748 529.008 217.215ZM521.273 214.875C521.23 212.145 520.255 209.957 518.348 208.31C516.441 206.663 514.08 205.84 511.263 205.84C508.706 205.84 506.518 206.663 504.698 208.31C502.878 209.913 501.795 212.102 501.448 214.875H521.273ZM554.37 199.6C557.187 199.6 559.7 200.185 561.91 201.355C564.164 202.525 565.919 204.258 567.175 206.555C568.432 208.852 569.06 211.625 569.06 214.875V236H561.715V215.98C561.715 212.773 560.914 210.325 559.31 208.635C557.707 206.902 555.519 206.035 552.745 206.035C549.972 206.035 547.762 206.902 546.115 208.635C544.512 210.325 543.71 212.773 543.71 215.98V236H536.3V200.185H543.71V204.28C544.924 202.807 546.462 201.658 548.325 200.835C550.232 200.012 552.247 199.6 554.37 199.6ZM592.727 233.27C594.027 233.27 594.937 232.967 595.457 232.36C595.977 231.753 596.281 230.908 596.367 229.825C596.497 228.742 596.562 227.485 596.562 226.055V196.675C596.562 195.938 596.562 195.202 596.562 194.465C596.606 193.685 596.671 192.862 596.757 191.995C596.021 192.038 595.241 192.082 594.417 192.125C593.594 192.125 592.857 192.147 592.207 192.19V188.745C594.157 188.745 595.696 188.658 596.822 188.485C597.992 188.268 598.881 188.03 599.487 187.77C600.137 187.51 600.614 187.228 600.917 186.925H603.387V227.94C603.387 228.72 603.366 229.522 603.322 230.345C603.279 231.125 603.214 231.927 603.127 232.75C603.821 232.707 604.514 232.685 605.207 232.685C605.944 232.642 606.616 232.598 607.222 232.555V236H592.727V233.27ZM612.043 233.27C613.343 233.27 614.253 232.967 614.773 232.36C615.293 231.753 615.596 230.908 615.683 229.825C615.813 228.742 615.878 227.485 615.878 226.055V212.6C615.878 211.863 615.899 211.127 615.943 210.39C615.986 209.61 616.051 208.787 616.138 207.92C615.401 207.963 614.621 208.007 613.798 208.05C612.974 208.05 612.216 208.072 611.523 208.115V204.67C613.473 204.67 615.011 204.583 616.138 204.41C617.308 204.193 618.196 203.955 618.803 203.695C619.453 203.435 619.929 203.153 620.233 202.85H622.703V227.94C622.703 228.72 622.681 229.522 622.638 230.345C622.594 231.125 622.529 231.927 622.443 232.75C623.136 232.707 623.829 232.685 624.523 232.685C625.259 232.642 625.931 232.598 626.538 232.555V236H612.043V233.27ZM618.998 196.87C617.871 196.87 616.918 196.458 616.138 195.635C615.358 194.768 614.968 193.728 614.968 192.515C614.968 191.302 615.379 190.283 616.203 189.46C617.026 188.593 617.958 188.16 618.998 188.16C620.124 188.16 621.056 188.593 621.793 189.46C622.573 190.283 622.963 191.302 622.963 192.515C622.963 193.728 622.573 194.768 621.793 195.635C621.056 196.458 620.124 196.87 618.998 196.87ZM631.276 236V233.27C632.576 233.27 633.486 232.967 634.006 232.36C634.526 231.753 634.829 230.908 634.916 229.825C635.046 228.742 635.111 227.485 635.111 226.055L635.176 212.535C635.176 211.842 635.176 211.105 635.176 210.325C635.219 209.502 635.306 208.7 635.436 207.92C634.656 207.963 633.854 208.007 633.031 208.05C632.251 208.05 631.514 208.072 630.821 208.115V204.67C632.771 204.67 634.288 204.583 635.371 204.41C636.498 204.193 637.343 203.955 637.906 203.695C638.513 203.435 638.968 203.153 639.271 202.85H641.611C641.654 203.24 641.676 203.608 641.676 203.955C641.719 204.302 641.741 204.67 641.741 205.06C641.784 205.45 641.828 205.948 641.871 206.555C642.824 205.775 643.864 205.082 644.991 204.475C646.118 203.868 647.288 203.392 648.501 203.045C649.758 202.655 650.949 202.46 652.076 202.46C655.933 202.46 658.706 203.63 660.396 205.97C662.129 208.31 662.996 211.972 662.996 216.955V227.94C662.996 228.72 662.974 229.522 662.931 230.345C662.888 231.125 662.823 231.927 662.736 232.75C663.429 232.707 664.123 232.685 664.816 232.685C665.553 232.642 666.224 232.598 666.831 232.555V236H652.336V233.27C653.636 233.27 654.546 232.967 655.066 232.36C655.586 231.753 655.889 230.908 655.976 229.825C656.106 228.742 656.171 227.485 656.171 226.055V216.955C656.128 213.532 655.564 210.953 654.481 209.22C653.441 207.487 651.751 206.642 649.411 206.685C648.024 206.685 646.659 207.032 645.316 207.725C643.973 208.418 642.846 209.263 641.936 210.26C641.936 210.693 641.936 211.17 641.936 211.69C641.936 212.167 641.936 212.665 641.936 213.185V227.94C641.936 228.72 641.914 229.522 641.871 230.345C641.828 231.125 641.763 231.927 641.676 232.75C642.369 232.707 643.063 232.685 643.756 232.685C644.493 232.642 645.164 232.598 645.771 232.555V236H631.276ZM670.678 236V233.27C671.978 233.27 672.866 232.967 673.343 232.36C673.863 231.753 674.166 230.908 674.253 229.825C674.383 228.742 674.448 227.485 674.448 226.055L674.513 196.675C674.513 195.938 674.513 195.202 674.513 194.465C674.556 193.685 674.621 192.862 674.708 191.995C673.971 192.038 673.191 192.082 672.368 192.125C671.545 192.125 670.808 192.147 670.158 192.19V188.745C672.065 188.745 673.581 188.658 674.708 188.485C675.878 188.268 676.788 188.03 677.438 187.77C678.088 187.51 678.543 187.228 678.803 186.925H681.273V217.28H684.068L690.893 209.935C691.586 209.242 692.193 208.635 692.713 208.115C693.233 207.595 693.753 207.14 694.273 206.75L690.178 206.88V203.5H702.983V206.165C701.466 206.338 700.08 206.793 698.823 207.53C697.61 208.223 696.505 209.025 695.508 209.935C694.511 210.845 693.666 211.69 692.973 212.47L688.163 217.54C688.986 217.93 689.701 218.428 690.308 219.035C690.915 219.598 691.565 220.335 692.258 221.245L696.808 227.095C697.025 227.355 697.371 227.832 697.848 228.525C698.368 229.175 698.975 229.868 699.668 230.605C700.361 231.342 701.076 231.97 701.813 232.49C702.593 233.01 703.33 233.27 704.023 233.27V236H697.588C696.331 236 695.161 235.415 694.078 234.245C693.038 233.075 691.89 231.667 690.633 230.02C689.593 228.633 688.64 227.333 687.773 226.12C686.906 224.863 686.105 223.737 685.368 222.74C684.675 221.743 684.068 220.963 683.548 220.4L681.273 220.53V227.94C681.273 228.72 681.251 229.522 681.208 230.345C681.208 231.125 681.143 231.927 681.013 232.75C681.706 232.707 682.421 232.685 683.158 232.685C683.895 232.642 684.566 232.598 685.173 232.555V236H670.678Z" fill="white"/>
<path d="M302.16 392L292.745 381.115V392H288.755V367.675H292.745V378.77L302.195 367.675H307.2L296.63 379.855L307.375 392H302.16ZM320.634 372.4C322.15 372.4 323.504 372.715 324.694 373.345C325.907 373.975 326.852 374.908 327.529 376.145C328.205 377.382 328.544 378.875 328.544 380.625V392H324.589V381.22C324.589 379.493 324.157 378.175 323.294 377.265C322.43 376.332 321.252 375.865 319.759 375.865C318.265 375.865 317.075 376.332 316.189 377.265C315.325 378.175 314.894 379.493 314.894 381.22V392H310.904V372.715H314.894V374.92C315.547 374.127 316.375 373.508 317.379 373.065C318.405 372.622 319.49 372.4 320.634 372.4ZM341.998 392.315C340.178 392.315 338.533 391.907 337.063 391.09C335.593 390.25 334.438 389.083 333.598 387.59C332.758 386.073 332.338 384.323 332.338 382.34C332.338 380.38 332.77 378.642 333.633 377.125C334.497 375.608 335.675 374.442 337.168 373.625C338.662 372.808 340.33 372.4 342.173 372.4C344.017 372.4 345.685 372.808 347.178 373.625C348.672 374.442 349.85 375.608 350.713 377.125C351.577 378.642 352.008 380.38 352.008 382.34C352.008 384.3 351.565 386.038 350.678 387.555C349.792 389.072 348.578 390.25 347.038 391.09C345.522 391.907 343.842 392.315 341.998 392.315ZM341.998 388.85C343.025 388.85 343.982 388.605 344.868 388.115C345.778 387.625 346.513 386.89 347.073 385.91C347.633 384.93 347.913 383.74 347.913 382.34C347.913 380.94 347.645 379.762 347.108 378.805C346.572 377.825 345.86 377.09 344.973 376.6C344.087 376.11 343.13 375.865 342.103 375.865C341.077 375.865 340.12 376.11 339.233 376.6C338.37 377.09 337.682 377.825 337.168 378.805C336.655 379.762 336.398 380.94 336.398 382.34C336.398 384.417 336.923 386.027 337.973 387.17C339.047 388.29 340.388 388.85 341.998 388.85ZM381.853 372.715L375.868 392H371.668L367.783 377.755L363.898 392H359.698L353.678 372.715H357.738L361.763 388.22L365.858 372.715H370.023L373.943 388.15L377.933 372.715H381.853ZM403.901 372.4C405.371 372.4 406.678 372.715 407.821 373.345C408.988 373.975 409.898 374.908 410.551 376.145C411.228 377.382 411.566 378.875 411.566 380.625V392H407.611V381.22C407.611 379.493 407.18 378.175 406.316 377.265C405.453 376.332 404.275 375.865 402.781 375.865C401.288 375.865 400.098 376.332 399.211 377.265C398.348 378.175 397.916 379.493 397.916 381.22V392H393.926V366.1H397.916V374.955C398.593 374.138 399.445 373.508 400.471 373.065C401.521 372.622 402.665 372.4 403.901 372.4ZM425.021 392.315C423.201 392.315 421.556 391.907 420.086 391.09C418.616 390.25 417.461 389.083 416.621 387.59C415.781 386.073 415.361 384.323 415.361 382.34C415.361 380.38 415.792 378.642 416.656 377.125C417.519 375.608 418.697 374.442 420.191 373.625C421.684 372.808 423.352 372.4 425.196 372.4C427.039 372.4 428.707 372.808 430.201 373.625C431.694 374.442 432.872 375.608 433.736 377.125C434.599 378.642 435.031 380.38 435.031 382.34C435.031 384.3 434.587 386.038 433.701 387.555C432.814 389.072 431.601 390.25 430.061 391.09C428.544 391.907 426.864 392.315 425.021 392.315ZM425.021 388.85C426.047 388.85 427.004 388.605 427.891 388.115C428.801 387.625 429.536 386.89 430.096 385.91C430.656 384.93 430.936 383.74 430.936 382.34C430.936 380.94 430.667 379.762 430.131 378.805C429.594 377.825 428.882 377.09 427.996 376.6C427.109 376.11 426.152 375.865 425.126 375.865C424.099 375.865 423.142 376.11 422.256 376.6C421.392 377.09 420.704 377.825 420.191 378.805C419.677 379.762 419.421 380.94 419.421 382.34C419.421 384.417 419.946 386.027 420.996 387.17C422.069 388.29 423.411 388.85 425.021 388.85ZM464.875 372.715L458.89 392H454.69L450.805 377.755L446.92 392H442.72L436.7 372.715H440.76L444.785 388.22L448.88 372.715H453.045L456.965 388.15L460.955 372.715H464.875ZM478.979 370.16C478.255 370.16 477.649 369.915 477.159 369.425C476.669 368.935 476.424 368.328 476.424 367.605C476.424 366.882 476.669 366.275 477.159 365.785C477.649 365.295 478.255 365.05 478.979 365.05C479.679 365.05 480.274 365.295 480.764 365.785C481.254 366.275 481.499 366.882 481.499 367.605C481.499 368.328 481.254 368.935 480.764 369.425C480.274 369.915 479.679 370.16 478.979 370.16ZM480.939 372.715V392H476.949V372.715H480.939ZM493.177 392.315C491.661 392.315 490.296 392.047 489.082 391.51C487.892 390.95 486.947 390.203 486.247 389.27C485.547 388.313 485.174 387.252 485.127 386.085H489.257C489.327 386.902 489.712 387.59 490.412 388.15C491.136 388.687 492.034 388.955 493.107 388.955C494.227 388.955 495.091 388.745 495.697 388.325C496.327 387.882 496.642 387.322 496.642 386.645C496.642 385.922 496.292 385.385 495.592 385.035C494.916 384.685 493.831 384.3 492.337 383.88C490.891 383.483 489.712 383.098 488.802 382.725C487.892 382.352 487.099 381.78 486.422 381.01C485.769 380.24 485.442 379.225 485.442 377.965C485.442 376.938 485.746 376.005 486.352 375.165C486.959 374.302 487.822 373.625 488.942 373.135C490.086 372.645 491.392 372.4 492.862 372.4C495.056 372.4 496.817 372.96 498.147 374.08C499.501 375.177 500.224 376.682 500.317 378.595H496.327C496.257 377.732 495.907 377.043 495.277 376.53C494.647 376.017 493.796 375.76 492.722 375.76C491.672 375.76 490.867 375.958 490.307 376.355C489.747 376.752 489.467 377.277 489.467 377.93C489.467 378.443 489.654 378.875 490.027 379.225C490.401 379.575 490.856 379.855 491.392 380.065C491.929 380.252 492.722 380.497 493.772 380.8C495.172 381.173 496.316 381.558 497.202 381.955C498.112 382.328 498.894 382.888 499.547 383.635C500.201 384.382 500.539 385.373 500.562 386.61C500.562 387.707 500.259 388.687 499.652 389.55C499.046 390.413 498.182 391.09 497.062 391.58C495.966 392.07 494.671 392.315 493.177 392.315ZM518.62 375.97V386.645C518.62 387.368 518.784 387.893 519.11 388.22C519.46 388.523 520.044 388.675 520.86 388.675H523.31V392H520.16C518.364 392 516.987 391.58 516.03 390.74C515.074 389.9 514.595 388.535 514.595 386.645V375.97H512.32V372.715H514.595V367.92H518.62V372.715H523.31V375.97H518.62ZM536.963 372.4C538.433 372.4 539.739 372.715 540.883 373.345C542.049 373.975 542.959 374.908 543.613 376.145C544.289 377.382 544.628 378.875 544.628 380.625V392H540.673V381.22C540.673 379.493 540.241 378.175 539.378 377.265C538.514 376.332 537.336 375.865 535.843 375.865C534.349 375.865 533.159 376.332 532.273 377.265C531.409 378.175 530.978 379.493 530.978 381.22V392H526.988V366.1H530.978V374.955C531.654 374.138 532.506 373.508 533.533 373.065C534.583 372.622 535.726 372.4 536.963 372.4ZM551.747 370.16C551.024 370.16 550.417 369.915 549.927 369.425C549.437 368.935 549.192 368.328 549.192 367.605C549.192 366.882 549.437 366.275 549.927 365.785C550.417 365.295 551.024 365.05 551.747 365.05C552.447 365.05 553.042 365.295 553.532 365.785C554.022 366.275 554.267 366.882 554.267 367.605C554.267 368.328 554.022 368.935 553.532 369.425C553.042 369.915 552.447 370.16 551.747 370.16ZM553.707 372.715V392H549.717V372.715H553.707ZM565.946 392.315C564.429 392.315 563.064 392.047 561.851 391.51C560.661 390.95 559.716 390.203 559.016 389.27C558.316 388.313 557.942 387.252 557.896 386.085H562.026C562.096 386.902 562.481 387.59 563.181 388.15C563.904 388.687 564.802 388.955 565.876 388.955C566.996 388.955 567.859 388.745 568.466 388.325C569.096 387.882 569.411 387.322 569.411 386.645C569.411 385.922 569.061 385.385 568.361 385.035C567.684 384.685 566.599 384.3 565.106 383.88C563.659 383.483 562.481 383.098 561.571 382.725C560.661 382.352 559.867 381.78 559.191 381.01C558.537 380.24 558.211 379.225 558.211 377.965C558.211 376.938 558.514 376.005 559.121 375.165C559.727 374.302 560.591 373.625 561.711 373.135C562.854 372.645 564.161 372.4 565.631 372.4C567.824 372.4 569.586 372.96 570.916 374.08C572.269 375.177 572.992 376.682 573.086 378.595H569.096C569.026 377.732 568.676 377.043 568.046 376.53C567.416 376.017 566.564 375.76 565.491 375.76C564.441 375.76 563.636 375.958 563.076 376.355C562.516 376.752 562.236 377.277 562.236 377.93C562.236 378.443 562.422 378.875 562.796 379.225C563.169 379.575 563.624 379.855 564.161 380.065C564.697 380.252 565.491 380.497 566.541 380.8C567.941 381.173 569.084 381.558 569.971 381.955C570.881 382.328 571.662 382.888 572.316 383.635C572.969 384.382 573.307 385.373 573.331 386.61C573.331 387.707 573.027 388.687 572.421 389.55C571.814 390.413 570.951 391.09 569.831 391.58C568.734 392.07 567.439 392.315 565.946 392.315ZM586.731 370.825C586.731 370.428 586.731 370.032 586.731 369.635C586.755 369.215 586.79 368.772 586.836 368.305C586.416 368.328 585.985 368.352 585.541 368.375C585.121 368.375 584.725 368.387 584.351 368.41V366.555C585.401 366.555 586.241 366.508 586.871 366.415C587.501 366.298 587.98 366.17 588.306 366.03C588.656 365.89 588.913 365.738 589.076 365.575H590.371V375.935C591.071 375.282 591.853 374.792 592.716 374.465C593.603 374.115 594.525 373.94 595.481 373.94C596.928 373.94 598.223 374.302 599.366 375.025C600.533 375.748 601.443 376.775 602.096 378.105C602.773 379.435 603.111 381.01 603.111 382.83C603.111 384.767 602.703 386.47 601.886 387.94C601.093 389.41 600.031 390.553 598.701 391.37C597.371 392.163 595.878 392.56 594.221 392.56C593.475 392.56 592.623 392.42 591.666 392.14C590.733 391.86 589.881 391.288 589.111 390.425L588.201 392H586.661L586.731 370.825ZM590.371 386.575C590.371 387.672 590.546 388.523 590.896 389.13C591.246 389.713 591.69 390.133 592.226 390.39C592.786 390.623 593.37 390.74 593.976 390.74C595.073 390.763 595.995 390.46 596.741 389.83C597.488 389.2 598.048 388.348 598.421 387.275C598.818 386.178 599.016 384.942 599.016 383.565C599.016 382.165 598.841 380.905 598.491 379.785C598.141 378.665 597.605 377.778 596.881 377.125C596.158 376.448 595.248 376.122 594.151 376.145C593.428 376.145 592.728 376.308 592.051 376.635C591.398 376.962 590.838 377.405 590.371 377.965V386.575ZM613.335 392.56C612.028 392.56 610.943 392.315 610.08 391.825C609.24 391.335 608.61 390.53 608.19 389.41C607.77 388.267 607.56 386.762 607.56 384.895V379.4C607.56 379.003 607.56 378.595 607.56 378.175C607.583 377.732 607.63 377.3 607.7 376.88C607.303 376.903 606.883 376.927 606.44 376.95C605.997 376.95 605.6 376.962 605.25 376.985V375.13H606.09C607.257 375.13 608.132 375.025 608.715 374.815C609.298 374.605 609.707 374.383 609.94 374.15H611.27V384.825C611.27 386.668 611.527 388.045 612.04 388.955C612.553 389.865 613.417 390.308 614.63 390.285C615.423 390.285 616.182 390.052 616.905 389.585C617.652 389.118 618.258 388.57 618.725 387.94V379.645C618.725 379.132 618.737 378.653 618.76 378.21C618.783 377.743 618.83 377.3 618.9 376.88C618.48 376.903 618.048 376.927 617.605 376.95C617.162 376.95 616.753 376.962 616.38 376.985V375.13H617.395C618.422 375.13 619.227 375.025 619.81 374.815C620.393 374.605 620.813 374.383 621.07 374.15H622.4L622.365 387.03C622.365 387.403 622.353 387.917 622.33 388.57C622.307 389.2 622.272 389.76 622.225 390.25C622.622 390.227 623.03 390.203 623.45 390.18C623.893 390.157 624.302 390.145 624.675 390.145V392H619.11C619.063 391.627 619.017 391.277 618.97 390.95C618.947 390.623 618.912 390.308 618.865 390.005C618.142 390.682 617.302 391.277 616.345 391.79C615.388 392.303 614.385 392.56 613.335 392.56ZM633.759 392.56C633.176 392.56 632.592 392.478 632.009 392.315C631.426 392.175 630.877 391.883 630.364 391.44C629.874 390.973 629.489 390.308 629.209 389.445C628.929 388.582 628.789 387.438 628.789 386.015L628.859 376.46H626.269V374.5C626.899 374.477 627.541 374.243 628.194 373.8C628.847 373.357 629.419 372.762 629.909 372.015C630.399 371.268 630.737 370.463 630.924 369.6H632.569V374.5H637.959V376.32L632.569 376.39L632.499 385.735C632.499 386.622 632.569 387.403 632.709 388.08C632.872 388.733 633.129 389.247 633.479 389.62C633.852 389.97 634.354 390.145 634.984 390.145C635.521 390.145 636.069 389.982 636.629 389.655C637.212 389.328 637.761 388.792 638.274 388.045L639.464 389.095C638.904 389.912 638.344 390.553 637.784 391.02C637.224 391.487 636.687 391.825 636.174 392.035C635.661 392.268 635.194 392.408 634.774 392.455C634.354 392.525 634.016 392.56 633.759 392.56ZM647.875 392.56C647.292 392.56 646.708 392.478 646.125 392.315C645.542 392.175 644.993 391.883 644.48 391.44C643.99 390.973 643.605 390.308 643.325 389.445C643.045 388.582 642.905 387.438 642.905 386.015L642.975 376.46H640.385V374.5C641.015 374.477 641.657 374.243 642.31 373.8C642.963 373.357 643.535 372.762 644.025 372.015C644.515 371.268 644.853 370.463 645.04 369.6H646.685V374.5H652.075V376.32L646.685 376.39L646.615 385.735C646.615 386.622 646.685 387.403 646.825 388.08C646.988 388.733 647.245 389.247 647.595 389.62C647.968 389.97 648.47 390.145 649.1 390.145C649.637 390.145 650.185 389.982 650.745 389.655C651.328 389.328 651.877 388.792 652.39 388.045L653.58 389.095C653.02 389.912 652.46 390.553 651.9 391.02C651.34 391.487 650.803 391.825 650.29 392.035C649.777 392.268 649.31 392.408 648.89 392.455C648.47 392.525 648.132 392.56 647.875 392.56ZM663.712 392.56C662.055 392.56 660.562 392.187 659.232 391.44C657.902 390.693 656.84 389.655 656.047 388.325C655.277 386.972 654.892 385.42 654.892 383.67C654.892 381.78 655.277 380.112 656.047 378.665C656.84 377.195 657.902 376.04 659.232 375.2C660.562 374.36 662.044 373.94 663.677 373.94C665.334 373.94 666.827 374.325 668.157 375.095C669.487 375.842 670.537 376.892 671.307 378.245C672.1 379.575 672.497 381.115 672.497 382.865C672.497 384.708 672.112 386.365 671.342 387.835C670.572 389.305 669.522 390.46 668.192 391.3C666.885 392.14 665.392 392.56 663.712 392.56ZM663.957 390.81C665.077 390.787 665.952 390.437 666.582 389.76C667.235 389.083 667.702 388.22 667.982 387.17C668.262 386.097 668.402 384.988 668.402 383.845C668.402 382.842 668.309 381.862 668.122 380.905C667.959 379.925 667.69 379.038 667.317 378.245C666.944 377.452 666.454 376.822 665.847 376.355C665.24 375.865 664.505 375.632 663.642 375.655C662.545 375.655 661.647 375.993 660.947 376.67C660.27 377.347 659.769 378.222 659.442 379.295C659.139 380.345 658.987 381.465 658.987 382.655C658.987 384.032 659.162 385.338 659.512 386.575C659.862 387.812 660.399 388.827 661.122 389.62C661.869 390.413 662.814 390.81 663.957 390.81ZM675.336 392V390.53C676.036 390.53 676.526 390.367 676.806 390.04C677.086 389.713 677.249 389.258 677.296 388.675C677.366 388.092 677.401 387.415 677.401 386.645L677.436 379.365C677.436 378.992 677.436 378.595 677.436 378.175C677.459 377.732 677.506 377.3 677.576 376.88C677.156 376.903 676.724 376.927 676.281 376.95C675.861 376.95 675.464 376.962 675.091 376.985V375.13C676.141 375.13 676.957 375.083 677.541 374.99C678.147 374.873 678.602 374.745 678.906 374.605C679.232 374.465 679.477 374.313 679.641 374.15H680.901C680.924 374.36 680.936 374.558 680.936 374.745C680.959 374.932 680.971 375.13 680.971 375.34C680.994 375.55 681.017 375.818 681.041 376.145C681.554 375.725 682.114 375.352 682.721 375.025C683.327 374.698 683.957 374.442 684.611 374.255C685.287 374.045 685.929 373.94 686.536 373.94C688.612 373.94 690.106 374.57 691.016 375.83C691.949 377.09 692.416 379.062 692.416 381.745V387.66C692.416 388.08 692.404 388.512 692.381 388.955C692.357 389.375 692.322 389.807 692.276 390.25C692.649 390.227 693.022 390.215 693.396 390.215C693.792 390.192 694.154 390.168 694.481 390.145V392H686.676V390.53C687.376 390.53 687.866 390.367 688.146 390.04C688.426 389.713 688.589 389.258 688.636 388.675C688.706 388.092 688.741 387.415 688.741 386.645V381.745C688.717 379.902 688.414 378.513 687.831 377.58C687.271 376.647 686.361 376.192 685.101 376.215C684.354 376.215 683.619 376.402 682.896 376.775C682.172 377.148 681.566 377.603 681.076 378.14C681.076 378.373 681.076 378.63 681.076 378.91C681.076 379.167 681.076 379.435 681.076 379.715V387.66C681.076 388.08 681.064 388.512 681.041 388.955C681.017 389.375 680.982 389.807 680.936 390.25C681.309 390.227 681.682 390.215 682.056 390.215C682.452 390.192 682.814 390.168 683.141 390.145V392H675.336ZM730.596 372.4C732.113 372.4 733.466 372.715 734.656 373.345C735.87 373.975 736.815 374.908 737.491 376.145C738.191 377.382 738.541 378.875 738.541 380.625V392H734.586V381.22C734.586 379.493 734.155 378.175 733.291 377.265C732.428 376.332 731.25 375.865 729.756 375.865C728.263 375.865 727.073 376.332 726.186 377.265C725.323 378.175 724.891 379.493 724.891 381.22V392H720.936V381.22C720.936 379.493 720.505 378.175 719.641 377.265C718.778 376.332 717.6 375.865 716.106 375.865C714.613 375.865 713.423 376.332 712.536 377.265C711.673 378.175 711.241 379.493 711.241 381.22V392H707.251V372.715H711.241V374.92C711.895 374.127 712.723 373.508 713.726 373.065C714.73 372.622 715.803 372.4 716.946 372.4C718.486 372.4 719.863 372.727 721.076 373.38C722.29 374.033 723.223 374.978 723.876 376.215C724.46 375.048 725.37 374.127 726.606 373.45C727.843 372.75 729.173 372.4 730.596 372.4ZM742.289 382.27C742.289 380.333 742.685 378.618 743.479 377.125C744.295 375.632 745.392 374.477 746.769 373.66C748.169 372.82 749.709 372.4 751.389 372.4C752.905 372.4 754.224 372.703 755.344 373.31C756.487 373.893 757.397 374.628 758.074 375.515V372.715H762.099V392H758.074V389.13C757.397 390.04 756.475 390.798 755.309 391.405C754.142 392.012 752.812 392.315 751.319 392.315C749.662 392.315 748.145 391.895 746.769 391.055C745.392 390.192 744.295 389.002 743.479 387.485C742.685 385.945 742.289 384.207 742.289 382.27ZM758.074 382.34C758.074 381.01 757.794 379.855 757.234 378.875C756.697 377.895 755.985 377.148 755.099 376.635C754.212 376.122 753.255 375.865 752.229 375.865C751.202 375.865 750.245 376.122 749.359 376.635C748.472 377.125 747.749 377.86 747.189 378.84C746.652 379.797 746.384 380.94 746.384 382.27C746.384 383.6 746.652 384.767 747.189 385.77C747.749 386.773 748.472 387.543 749.359 388.08C750.269 388.593 751.225 388.85 752.229 388.85C753.255 388.85 754.212 388.593 755.099 388.08C755.985 387.567 756.697 386.82 757.234 385.84C757.794 384.837 758.074 383.67 758.074 382.34ZM766.009 382.27C766.009 380.333 766.406 378.618 767.199 377.125C768.016 375.632 769.113 374.477 770.489 373.66C771.889 372.82 773.441 372.4 775.144 372.4C776.404 372.4 777.641 372.68 778.854 373.24C780.091 373.777 781.071 374.5 781.794 375.41V366.1H785.819V392H781.794V389.095C781.141 390.028 780.231 390.798 779.064 391.405C777.921 392.012 776.603 392.315 775.109 392.315C773.429 392.315 771.889 391.895 770.489 391.055C769.113 390.192 768.016 389.002 767.199 387.485C766.406 385.945 766.009 384.207 766.009 382.27ZM781.794 382.34C781.794 381.01 781.514 379.855 780.954 378.875C780.418 377.895 779.706 377.148 778.819 376.635C777.933 376.122 776.976 375.865 775.949 375.865C774.923 375.865 773.966 376.122 773.079 376.635C772.193 377.125 771.469 377.86 770.909 378.84C770.373 379.797 770.104 380.94 770.104 382.27C770.104 383.6 770.373 384.767 770.909 385.77C771.469 386.773 772.193 387.543 773.079 388.08C773.989 388.593 774.946 388.85 775.949 388.85C776.976 388.85 777.933 388.593 778.819 388.08C779.706 387.567 780.418 386.82 780.954 385.84C781.514 384.837 781.794 383.67 781.794 382.34ZM808.735 381.885C808.735 382.608 808.688 383.262 808.595 383.845H793.86C793.977 385.385 794.548 386.622 795.575 387.555C796.602 388.488 797.862 388.955 799.355 388.955C801.502 388.955 803.018 388.057 803.905 386.26H808.21C807.627 388.033 806.565 389.492 805.025 390.635C803.508 391.755 801.618 392.315 799.355 392.315C797.512 392.315 795.855 391.907 794.385 391.09C792.938 390.25 791.795 389.083 790.955 387.59C790.138 386.073 789.73 384.323 789.73 382.34C789.73 380.357 790.127 378.618 790.92 377.125C791.737 375.608 792.868 374.442 794.315 373.625C795.785 372.808 797.465 372.4 799.355 372.4C801.175 372.4 802.797 372.797 804.22 373.59C805.643 374.383 806.752 375.503 807.545 376.95C808.338 378.373 808.735 380.018 808.735 381.885ZM804.57 380.625C804.547 379.155 804.022 377.977 802.995 377.09C801.968 376.203 800.697 375.76 799.18 375.76C797.803 375.76 796.625 376.203 795.645 377.09C794.665 377.953 794.082 379.132 793.895 380.625H804.57ZM819.207 367.325C821.587 367.325 823.488 367.978 824.912 369.285C826.358 370.592 827.082 372.377 827.082 374.64C827.082 376.997 826.335 378.77 824.842 379.96C823.348 381.15 821.365 381.745 818.892 381.745L818.752 384.51H815.287L815.112 379.015H816.267C818.53 379.015 820.257 378.712 821.447 378.105C822.66 377.498 823.267 376.343 823.267 374.64C823.267 373.403 822.905 372.435 822.182 371.735C821.482 371.035 820.502 370.685 819.242 370.685C817.982 370.685 816.99 371.023 816.267 371.7C815.543 372.377 815.182 373.322 815.182 374.535H811.437C811.437 373.135 811.752 371.887 812.382 370.79C813.012 369.693 813.91 368.842 815.077 368.235C816.267 367.628 817.643 367.325 819.207 367.325ZM816.967 392.245C816.243 392.245 815.637 392 815.147 391.51C814.657 391.02 814.412 390.413 814.412 389.69C814.412 388.967 814.657 388.36 815.147 387.87C815.637 387.38 816.243 387.135 816.967 387.135C817.667 387.135 818.262 387.38 818.752 387.87C819.242 388.36 819.487 388.967 819.487 389.69C819.487 390.413 819.242 391.02 818.752 391.51C818.262 392 817.667 392.245 816.967 392.245Z" fill="white"/>
<path d="M394 263C402.432 266.978 404.766 268.875 414.362 270.031C421.573 270.899 428.848 269.972 435.984 269.102C438.396 268.808 442.359 267.851 445.137 268.173C447.925 268.497 450.833 270.051 453.594 270.627C466.019 273.221 477.807 266.712 490.239 266.847C496.56 266.916 502.832 268.229 509.142 268.571C521.011 269.216 532.594 267.906 544.294 266.084C550.297 265.15 555.854 264.723 561.871 265.753C568.935 266.962 575.76 268.741 582.962 269.168C600.385 270.201 617.667 266.748 635.061 267.212C642.421 267.408 649.749 267.775 657.115 267.775C674.285 267.775 691.41 266.582 708.584 266.582" stroke="white" stroke-width="3" stroke-linecap="round"/>
<path d="M483.565 53.04C482.818 53.0633 482.27 53.2267 481.92 53.53C481.57 53.81 481.348 54.23 481.255 54.79C481.162 55.3267 481.115 56.0383 481.115 56.925V71.31C481.115 71.94 481.103 72.5117 481.08 73.025C481.08 73.515 481.057 73.9117 481.01 74.215C481.407 74.1683 481.838 74.145 482.305 74.145C482.795 74.1217 483.215 74.0983 483.565 74.075V76H474.955V74.46C475.725 74.4133 476.273 74.25 476.6 73.97C476.95 73.69 477.172 73.27 477.265 72.71C477.358 72.15 477.405 71.4383 477.405 70.575V56.015C477.405 55.5017 477.417 55.0117 477.44 54.545C477.463 54.055 477.487 53.635 477.51 53.285C477.113 53.3083 476.682 53.3317 476.215 53.355C475.748 53.3783 475.328 53.4017 474.955 53.425V51.5H483.565V53.04ZM501.879 76.105L497.434 63.085C497.247 62.5717 497.096 62.1517 496.979 61.825C496.862 61.475 496.769 61.1833 496.699 60.95C496.629 60.6933 496.571 60.46 496.524 60.25L494.844 60.355V58.5H502.579V59.935C501.646 59.9583 501.121 60.2967 501.004 60.95C500.887 61.58 500.992 62.385 501.319 63.365L502.789 68.055C502.952 68.615 503.116 69.1867 503.279 69.77C503.442 70.33 503.606 70.89 503.769 71.45C503.956 70.8667 504.142 70.26 504.329 69.63C504.516 69 504.726 68.3233 504.959 67.6L507.864 58.5H510.104L513.394 68.51C513.557 69.0233 513.721 69.56 513.884 70.12C514.071 70.6567 514.246 71.1817 514.409 71.695C514.572 71.1817 514.736 70.6683 514.899 70.155C515.086 69.6417 515.249 69.14 515.389 68.65L517.384 62.735C517.571 62.1983 517.734 61.7317 517.874 61.335C518.037 60.915 518.224 60.5417 518.434 60.215L516.404 60.355V58.5H522.704V59.935C522.144 59.9583 521.677 60.075 521.304 60.285C520.931 60.4717 520.604 60.7167 520.324 61.02C520.067 61.3 519.857 61.6267 519.694 62C519.531 62.35 519.391 62.7 519.274 63.05L514.584 76.105H512.414L509.404 67.25C509.287 66.8767 509.159 66.48 509.019 66.06C508.879 65.6167 508.727 65.1617 508.564 64.695C508.424 64.2283 508.284 63.785 508.144 63.365C508.027 63.855 507.876 64.38 507.689 64.94C507.526 65.4767 507.362 66.0017 507.199 66.515C507.036 67.005 506.896 67.4367 506.779 67.81L503.944 76.105H501.879ZM534.286 76C534.239 75.6267 534.204 75.3 534.181 75.02C534.157 74.74 534.122 74.4483 534.076 74.145C533.282 74.9383 532.431 75.545 531.521 75.965C530.611 76.3617 529.666 76.56 528.686 76.56C527.006 76.56 525.734 76.1517 524.871 75.335C524.031 74.495 523.611 73.4567 523.611 72.22C523.611 71.1467 523.926 70.2133 524.556 69.42C525.186 68.6267 526.014 67.985 527.041 67.495C528.067 66.9817 529.187 66.6083 530.401 66.375C531.614 66.1183 532.804 65.99 533.971 65.99V63.925C533.971 63.1783 533.901 62.49 533.761 61.86C533.621 61.2067 533.329 60.6817 532.886 60.285C532.466 59.865 531.801 59.655 530.891 59.655C530.284 59.6317 529.677 59.7483 529.071 60.005C528.464 60.2383 527.997 60.635 527.671 61.195C527.857 61.3817 527.974 61.6033 528.021 61.86C528.091 62.0933 528.126 62.315 528.126 62.525C528.126 62.8517 527.986 63.225 527.706 63.645C527.426 64.0417 526.947 64.2283 526.271 64.205C525.711 64.205 525.279 64.0183 524.976 63.645C524.696 63.2483 524.556 62.7933 524.556 62.28C524.556 61.44 524.859 60.6933 525.466 60.04C526.096 59.3867 526.947 58.8733 528.021 58.5C529.094 58.1267 530.296 57.94 531.626 57.94C533.632 57.94 535.126 58.465 536.106 59.515C537.109 60.565 537.611 62.2217 537.611 64.485C537.611 65.325 537.611 66.13 537.611 66.9C537.611 67.67 537.599 68.44 537.576 69.21C537.576 69.98 537.576 70.7967 537.576 71.66C537.576 72.01 537.564 72.4067 537.541 72.85C537.517 73.2933 537.482 73.76 537.436 74.25C537.832 74.2267 538.241 74.2033 538.661 74.18C539.081 74.1567 539.477 74.145 539.851 74.145V76H534.286ZM533.971 67.6C533.224 67.6467 532.454 67.7517 531.661 67.915C530.891 68.0783 530.191 68.3233 529.561 68.65C528.931 68.9767 528.417 69.3967 528.021 69.91C527.647 70.4233 527.461 71.0417 527.461 71.765C527.507 72.5583 527.764 73.1417 528.231 73.515C528.721 73.8883 529.292 74.075 529.946 74.075C530.762 74.075 531.486 73.9233 532.116 73.62C532.746 73.2933 533.364 72.85 533.971 72.29C533.947 72.0333 533.936 71.7767 533.936 71.52C533.936 71.24 533.936 70.9483 533.936 70.645C533.936 70.435 533.936 70.05 533.936 69.49C533.959 68.9067 533.971 68.2767 533.971 67.6ZM542.11 76V74.53C542.81 74.53 543.3 74.3667 543.58 74.04C543.86 73.7133 544.023 73.2583 544.07 72.675C544.14 72.0917 544.175 71.415 544.175 70.645L544.21 63.365C544.21 62.9917 544.21 62.595 544.21 62.175C544.233 61.7317 544.28 61.3 544.35 60.88C543.93 60.9033 543.498 60.9267 543.055 60.95C542.635 60.95 542.238 60.9617 541.865 60.985V59.13C542.915 59.13 543.732 59.0833 544.315 58.99C544.922 58.8733 545.377 58.745 545.68 58.605C546.007 58.465 546.252 58.3133 546.415 58.15H547.675C547.698 58.36 547.71 58.5583 547.71 58.745C547.733 58.9317 547.745 59.13 547.745 59.34C547.768 59.55 547.792 59.8183 547.815 60.145C548.328 59.725 548.888 59.3517 549.495 59.025C550.102 58.6983 550.732 58.4417 551.385 58.255C552.062 58.045 552.703 57.94 553.31 57.94C555.387 57.94 556.88 58.57 557.79 59.83C558.723 61.09 559.19 63.0617 559.19 65.745V71.66C559.19 72.08 559.178 72.5117 559.155 72.955C559.132 73.375 559.097 73.8067 559.05 74.25C559.423 74.2267 559.797 74.215 560.17 74.215C560.567 74.1917 560.928 74.1683 561.255 74.145V76H553.45V74.53C554.15 74.53 554.64 74.3667 554.92 74.04C555.2 73.7133 555.363 73.2583 555.41 72.675C555.48 72.0917 555.515 71.415 555.515 70.645V65.745C555.492 63.9017 555.188 62.5133 554.605 61.58C554.045 60.6467 553.135 60.1917 551.875 60.215C551.128 60.215 550.393 60.4017 549.67 60.775C548.947 61.1483 548.34 61.6033 547.85 62.14C547.85 62.3733 547.85 62.63 547.85 62.91C547.85 63.1667 547.85 63.435 547.85 63.715V71.66C547.85 72.08 547.838 72.5117 547.815 72.955C547.792 73.375 547.757 73.8067 547.71 74.25C548.083 74.2267 548.457 74.215 548.83 74.215C549.227 74.1917 549.588 74.1683 549.915 74.145V76H542.11ZM570.123 76.56C569.54 76.56 568.956 76.4783 568.373 76.315C567.79 76.175 567.241 75.8833 566.728 75.44C566.238 74.9733 565.853 74.3083 565.573 73.445C565.293 72.5817 565.153 71.4383 565.153 70.015L565.223 60.46H562.633V58.5C563.263 58.4767 563.905 58.2433 564.558 57.8C565.211 57.3567 565.783 56.7617 566.273 56.015C566.763 55.2683 567.101 54.4633 567.288 53.6H568.933V58.5H574.323V60.32L568.933 60.39L568.863 69.735C568.863 70.6217 568.933 71.4033 569.073 72.08C569.236 72.7333 569.493 73.2467 569.843 73.62C570.216 73.97 570.718 74.145 571.348 74.145C571.885 74.145 572.433 73.9817 572.993 73.655C573.576 73.3283 574.125 72.7917 574.638 72.045L575.828 73.095C575.268 73.9117 574.708 74.5533 574.148 75.02C573.588 75.4867 573.051 75.825 572.538 76.035C572.025 76.2683 571.558 76.4083 571.138 76.455C570.718 76.525 570.38 76.56 570.123 76.56ZM593.194 76.56C592.611 76.56 592.028 76.4783 591.444 76.315C590.861 76.175 590.313 75.8833 589.799 75.44C589.309 74.9733 588.924 74.3083 588.644 73.445C588.364 72.5817 588.224 71.4383 588.224 70.015L588.294 60.46H585.704V58.5C586.334 58.4767 586.976 58.2433 587.629 57.8C588.283 57.3567 588.854 56.7617 589.344 56.015C589.834 55.2683 590.173 54.4633 590.359 53.6H592.004V58.5H597.394V60.32L592.004 60.39L591.934 69.735C591.934 70.6217 592.004 71.4033 592.144 72.08C592.308 72.7333 592.564 73.2467 592.914 73.62C593.288 73.97 593.789 74.145 594.419 74.145C594.956 74.145 595.504 73.9817 596.064 73.655C596.648 73.3283 597.196 72.7917 597.709 72.045L598.899 73.095C598.339 73.9117 597.779 74.5533 597.219 75.02C596.659 75.4867 596.123 75.825 595.609 76.035C595.096 76.2683 594.629 76.4083 594.209 76.455C593.789 76.525 593.451 76.56 593.194 76.56ZM609.031 76.56C607.375 76.56 605.881 76.1867 604.551 75.44C603.221 74.6933 602.16 73.655 601.366 72.325C600.596 70.9717 600.211 69.42 600.211 67.67C600.211 65.78 600.596 64.1117 601.366 62.665C602.16 61.195 603.221 60.04 604.551 59.2C605.881 58.36 607.363 57.94 608.996 57.94C610.653 57.94 612.146 58.325 613.476 59.095C614.806 59.8417 615.856 60.8917 616.626 62.245C617.42 63.575 617.816 65.115 617.816 66.865C617.816 68.7083 617.431 70.365 616.661 71.835C615.891 73.305 614.841 74.46 613.511 75.3C612.205 76.14 610.711 76.56 609.031 76.56ZM609.276 74.81C610.396 74.7867 611.271 74.4367 611.901 73.76C612.555 73.0833 613.021 72.22 613.301 71.17C613.581 70.0967 613.721 68.9883 613.721 67.845C613.721 66.8417 613.628 65.8617 613.441 64.905C613.278 63.925 613.01 63.0383 612.636 62.245C612.263 61.4517 611.773 60.8217 611.166 60.355C610.56 59.865 609.825 59.6317 608.961 59.655C607.865 59.655 606.966 59.9933 606.266 60.67C605.59 61.3467 605.088 62.2217 604.761 63.295C604.458 64.345 604.306 65.465 604.306 66.655C604.306 68.0317 604.481 69.3383 604.831 70.575C605.181 71.8117 605.718 72.8267 606.441 73.62C607.188 74.4133 608.133 74.81 609.276 74.81ZM623.525 76.56C622.895 76.56 622.358 76.3267 621.915 75.86C621.495 75.3933 621.285 74.8217 621.285 74.145C621.285 73.4917 621.507 72.9317 621.95 72.465C622.417 71.975 622.942 71.73 623.525 71.73C624.155 71.73 624.68 71.975 625.1 72.465C625.52 72.9317 625.73 73.4917 625.73 74.145C625.73 74.8217 625.508 75.3933 625.065 75.86C624.645 76.3267 624.132 76.56 623.525 76.56ZM623.525 62.455C622.895 62.455 622.358 62.2217 621.915 61.755C621.495 61.2883 621.285 60.7167 621.285 60.04C621.285 59.3867 621.507 58.8267 621.95 58.36C622.417 57.87 622.942 57.625 623.525 57.625C624.155 57.625 624.68 57.87 625.1 58.36C625.52 58.8267 625.73 59.3867 625.73 60.04C625.73 60.7167 625.508 61.2883 625.065 61.755C624.645 62.2217 624.132 62.455 623.525 62.455Z" fill="white"/>
<rect x="230.5" y="332.5" width="640" height="99" rx="49.5" stroke="white"/>
</svg>
