<svg width="208" height="183" viewBox="0 0 208 183" fill="none" xmlns="http://www.w3.org/2000/svg">
<rect width="208" height="183" rx="15" fill="#E6CEFF"/>
<path d="M23.213 58.3833C23.5417 57.9526 23.9893 57.59 24.556 57.2953C25.1227 57.0006 25.763 56.8533 26.477 56.8533C27.293 56.8533 28.0353 57.0573 28.704 57.4653C29.384 57.862 29.9167 58.423 30.302 59.1483C30.6873 59.8736 30.88 60.7066 30.88 61.6473C30.88 62.588 30.6873 63.4323 30.302 64.1803C29.9167 64.917 29.384 65.495 28.704 65.9143C28.0353 66.3223 27.293 66.5263 26.477 66.5263C25.763 66.5263 25.1283 66.3846 24.573 66.1013C24.0177 65.8066 23.5643 65.444 23.213 65.0133V70.8273H21.275V57.0063H23.213V58.3833ZM28.908 61.6473C28.908 61.0013 28.772 60.446 28.5 59.9813C28.2393 59.5053 27.888 59.1483 27.446 58.9103C27.0153 58.661 26.5507 58.5363 26.052 58.5363C25.5647 58.5363 25.1 58.661 24.658 58.9103C24.2273 59.1596 23.876 59.5223 23.604 59.9983C23.3433 60.4743 23.213 61.0353 23.213 61.6813C23.213 62.3273 23.3433 62.894 23.604 63.3813C23.876 63.8573 24.2273 64.22 24.658 64.4693C25.1 64.7186 25.5647 64.8433 26.052 64.8433C26.5507 64.8433 27.0153 64.7186 27.446 64.4693C27.888 64.2086 28.2393 63.8346 28.5 63.3473C28.772 62.86 28.908 62.2933 28.908 61.6473ZM41.3815 61.4603C41.3815 61.8116 41.3588 62.129 41.3135 62.4123H34.1565C34.2132 63.1603 34.4908 63.761 34.9895 64.2143C35.4882 64.6676 36.1002 64.8943 36.8255 64.8943C37.8682 64.8943 38.6048 64.458 39.0355 63.5853H41.1265C40.8432 64.4466 40.3275 65.155 39.5795 65.7103C38.8428 66.2543 37.9248 66.5263 36.8255 66.5263C35.9302 66.5263 35.1255 66.328 34.4115 65.9313C33.7088 65.5233 33.1535 64.9566 32.7455 64.2313C32.3488 63.4946 32.1505 62.6446 32.1505 61.6813C32.1505 60.718 32.3432 59.8736 32.7285 59.1483C33.1252 58.4116 33.6748 57.845 34.3775 57.4483C35.0915 57.0516 35.9075 56.8533 36.8255 56.8533C37.7095 56.8533 38.4972 57.046 39.1885 57.4313C39.8798 57.8166 40.4182 58.3606 40.8035 59.0633C41.1888 59.7546 41.3815 60.5536 41.3815 61.4603ZM39.3585 60.8483C39.3472 60.1343 39.0922 59.562 38.5935 59.1313C38.0948 58.7006 37.4772 58.4853 36.7405 58.4853C36.0718 58.4853 35.4995 58.7006 35.0235 59.1313C34.5475 59.5506 34.2642 60.123 34.1735 60.8483H39.3585ZM42.6427 61.6473C42.6427 60.7066 42.8353 59.8736 43.2207 59.1483C43.6173 58.423 44.15 57.862 44.8187 57.4653C45.4987 57.0573 46.2467 56.8533 47.0627 56.8533C47.7993 56.8533 48.4397 57.0006 48.9837 57.2953C49.539 57.5786 49.981 57.9356 50.3097 58.3663V57.0063H52.2647V66.3733H50.3097V64.9793C49.981 65.4213 49.5333 65.7896 48.9667 66.0843C48.4 66.379 47.754 66.5263 47.0287 66.5263C46.224 66.5263 45.4873 66.3223 44.8187 65.9143C44.15 65.495 43.6173 64.917 43.2207 64.1803C42.8353 63.4323 42.6427 62.588 42.6427 61.6473ZM50.3097 61.6813C50.3097 61.0353 50.1737 60.4743 49.9017 59.9983C49.641 59.5223 49.2953 59.1596 48.8647 58.9103C48.434 58.661 47.9693 58.5363 47.4707 58.5363C46.972 58.5363 46.5073 58.661 46.0767 58.9103C45.646 59.1483 45.2947 59.5053 45.0227 59.9813C44.762 60.446 44.6317 61.0013 44.6317 61.6473C44.6317 62.2933 44.762 62.86 45.0227 63.3473C45.2947 63.8346 45.646 64.2086 46.0767 64.4693C46.5187 64.7186 46.9833 64.8433 47.4707 64.8433C47.9693 64.8433 48.434 64.7186 48.8647 64.4693C49.2953 64.22 49.641 63.8573 49.9017 63.3813C50.1737 62.894 50.3097 62.3273 50.3097 61.6813ZM54.1642 61.6813C54.1642 60.718 54.3568 59.8736 54.7422 59.1483C55.1388 58.4116 55.6828 57.845 56.3742 57.4483C57.0655 57.0516 57.8588 56.8533 58.7542 56.8533C59.8875 56.8533 60.8225 57.1253 61.5592 57.6693C62.3072 58.202 62.8115 58.967 63.0722 59.9643H60.9812C60.8112 59.4996 60.5392 59.137 60.1652 58.8763C59.7912 58.6156 59.3208 58.4853 58.7542 58.4853C57.9608 58.4853 57.3262 58.7686 56.8502 59.3353C56.3855 59.8906 56.1532 60.6726 56.1532 61.6813C56.1532 62.69 56.3855 63.4776 56.8502 64.0443C57.3262 64.611 57.9608 64.8943 58.7542 64.8943C59.8762 64.8943 60.6185 64.4013 60.9812 63.4153H63.0722C62.8002 64.3673 62.2902 65.1266 61.5422 65.6933C60.7942 66.2486 59.8648 66.5263 58.7542 66.5263C57.8588 66.5263 57.0655 66.328 56.3742 65.9313C55.6828 65.5233 55.1388 64.9566 54.7422 64.2313C54.3568 63.4946 54.1642 62.6446 54.1642 61.6813ZM73.5885 61.4603C73.5885 61.8116 73.5658 62.129 73.5205 62.4123H66.3635C66.4202 63.1603 66.6978 63.761 67.1965 64.2143C67.6952 64.6676 68.3072 64.8943 69.0325 64.8943C70.0752 64.8943 70.8118 64.458 71.2425 63.5853H73.3335C73.0502 64.4466 72.5345 65.155 71.7865 65.7103C71.0498 66.2543 70.1318 66.5263 69.0325 66.5263C68.1372 66.5263 67.3325 66.328 66.6185 65.9313C65.9158 65.5233 65.3605 64.9566 64.9525 64.2313C64.5558 63.4946 64.3575 62.6446 64.3575 61.6813C64.3575 60.718 64.5502 59.8736 64.9355 59.1483C65.3322 58.4116 65.8818 57.845 66.5845 57.4483C67.2985 57.0516 68.1145 56.8533 69.0325 56.8533C69.9165 56.8533 70.7042 57.046 71.3955 57.4313C72.0868 57.8166 72.6252 58.3606 73.0105 59.0633C73.3958 59.7546 73.5885 60.5536 73.5885 61.4603ZM71.5655 60.8483C71.5542 60.1343 71.2992 59.562 70.8005 59.1313C70.3018 58.7006 69.6842 58.4853 68.9475 58.4853C68.2788 58.4853 67.7065 58.7006 67.2305 59.1313C66.7545 59.5506 66.4712 60.123 66.3805 60.8483H71.5655ZM79.4227 58.5873H77.6887V66.3733H75.7337V58.5873H74.6287V57.0063H75.7337V56.3433C75.7337 55.2666 76.017 54.4846 76.5837 53.9973C77.1617 53.4986 78.0627 53.2493 79.2867 53.2493V54.8643C78.6974 54.8643 78.2837 54.9776 78.0457 55.2043C77.8077 55.4196 77.6887 55.7993 77.6887 56.3433V57.0063H79.4227V58.5873ZM89.6232 57.0063V66.3733H87.6852V65.2683C87.3792 65.6536 86.9769 65.9596 86.4782 66.1863C85.9909 66.4016 85.4696 66.5093 84.9142 66.5093C84.1776 66.5093 83.5146 66.3563 82.9252 66.0503C82.3472 65.7443 81.8882 65.291 81.5482 64.6903C81.2196 64.0896 81.0552 63.3643 81.0552 62.5143V57.0063H82.9762V62.2253C82.9762 63.064 83.1859 63.71 83.6052 64.1633C84.0246 64.6053 84.5969 64.8263 85.3222 64.8263C86.0476 64.8263 86.6199 64.6053 87.0392 64.1633C87.4699 63.71 87.6852 63.064 87.6852 62.2253V57.0063H89.6232ZM94.1183 53.7933V66.3733H92.1803V53.7933H94.1183ZM97.4447 66.4923C97.0934 66.4923 96.7987 66.3733 96.5607 66.1353C96.3227 65.8973 96.2037 65.6026 96.2037 65.2513C96.2037 64.9 96.3227 64.6053 96.5607 64.3673C96.7987 64.1293 97.0934 64.0103 97.4447 64.0103C97.7847 64.0103 98.0737 64.1293 98.3117 64.3673C98.5497 64.6053 98.6687 64.9 98.6687 65.2513C98.6687 65.6026 98.5497 65.8973 98.3117 66.1353C98.0737 66.3733 97.7847 66.4923 97.4447 66.4923ZM102.701 58.3833C103.03 57.9526 103.478 57.59 104.044 57.2953C104.611 57.0006 105.251 56.8533 105.965 56.8533C106.781 56.8533 107.524 57.0573 108.192 57.4653C108.872 57.862 109.405 58.423 109.79 59.1483C110.176 59.8736 110.368 60.7066 110.368 61.6473C110.368 62.588 110.176 63.4323 109.79 64.1803C109.405 64.917 108.872 65.495 108.192 65.9143C107.524 66.3223 106.781 66.5263 105.965 66.5263C105.251 66.5263 104.617 66.3846 104.061 66.1013C103.506 65.8066 103.053 65.444 102.701 65.0133V70.8273H100.763V57.0063H102.701V58.3833ZM108.396 61.6473C108.396 61.0013 108.26 60.446 107.988 59.9813C107.728 59.5053 107.376 59.1483 106.934 58.9103C106.504 58.661 106.039 58.5363 105.54 58.5363C105.053 58.5363 104.588 58.661 104.146 58.9103C103.716 59.1596 103.364 59.5223 103.092 59.9983C102.832 60.4743 102.701 61.0353 102.701 61.6813C102.701 62.3273 102.832 62.894 103.092 63.3813C103.364 63.8573 103.716 64.22 104.146 64.4693C104.588 64.7186 105.053 64.8433 105.54 64.8433C106.039 64.8433 106.504 64.7186 106.934 64.4693C107.376 64.2086 107.728 63.8346 107.988 63.3473C108.26 62.86 108.396 62.2933 108.396 61.6473ZM117.011 56.8533C117.747 56.8533 118.405 57.0063 118.983 57.3123C119.572 57.6183 120.031 58.0716 120.36 58.6723C120.688 59.273 120.853 59.9983 120.853 60.8483V66.3733H118.932V61.1373C118.932 60.2986 118.722 59.6583 118.303 59.2163C117.883 58.763 117.311 58.5363 116.586 58.5363C115.86 58.5363 115.282 58.763 114.852 59.2163C114.432 59.6583 114.223 60.2986 114.223 61.1373V66.3733H112.285V57.0063H114.223V58.0773C114.54 57.692 114.942 57.3916 115.43 57.1763C115.928 56.961 116.455 56.8533 117.011 56.8533ZM127.099 56.8533C127.824 56.8533 128.464 57.0006 129.02 57.2953C129.586 57.5786 130.028 57.9356 130.346 58.3663V57.0063H132.301V66.5263C132.301 67.3876 132.119 68.1526 131.757 68.8213C131.394 69.5013 130.867 70.034 130.176 70.4193C129.496 70.8046 128.68 70.9973 127.728 70.9973C126.458 70.9973 125.404 70.697 124.566 70.0963C123.727 69.507 123.251 68.7023 123.138 67.6823H125.059C125.206 68.1696 125.518 68.5606 125.994 68.8553C126.481 69.1613 127.059 69.3143 127.728 69.3143C128.51 69.3143 129.139 69.0763 129.615 68.6003C130.102 68.1243 130.346 67.433 130.346 66.5263V64.9623C130.017 65.4043 129.569 65.7783 129.003 66.0843C128.447 66.379 127.813 66.5263 127.099 66.5263C126.283 66.5263 125.535 66.3223 124.855 65.9143C124.186 65.495 123.653 64.917 123.257 64.1803C122.871 63.4323 122.679 62.588 122.679 61.6473C122.679 60.7066 122.871 59.8736 123.257 59.1483C123.653 58.423 124.186 57.862 124.855 57.4653C125.535 57.0573 126.283 56.8533 127.099 56.8533ZM130.346 61.6813C130.346 61.0353 130.21 60.4743 129.938 59.9983C129.677 59.5223 129.331 59.1596 128.901 58.9103C128.47 58.661 128.005 58.5363 127.507 58.5363C127.008 58.5363 126.543 58.661 126.113 58.9103C125.682 59.1483 125.331 59.5053 125.059 59.9813C124.798 60.446 124.668 61.0013 124.668 61.6473C124.668 62.2933 124.798 62.86 125.059 63.3473C125.331 63.8346 125.682 64.2086 126.113 64.4693C126.555 64.7186 127.019 64.8433 127.507 64.8433C128.005 64.8433 128.47 64.7186 128.901 64.4693C129.331 64.22 129.677 63.8573 129.938 63.3813C130.21 62.894 130.346 62.3273 130.346 61.6813Z" fill="black"/>
<path d="M20.986 109.6C21.054 108.546 21.4563 107.725 22.193 107.135C22.941 106.546 23.893 106.251 25.049 106.251C25.8423 106.251 26.528 106.393 27.106 106.676C27.684 106.96 28.1203 107.345 28.415 107.832C28.7097 108.32 28.857 108.869 28.857 109.481C28.857 110.184 28.67 110.785 28.296 111.283C27.922 111.782 27.4743 112.116 26.953 112.286V112.354C27.6217 112.558 28.143 112.932 28.517 113.476C28.891 114.009 29.078 114.695 29.078 115.533C29.078 116.202 28.925 116.797 28.619 117.318C28.313 117.84 27.8597 118.253 27.259 118.559C26.6583 118.854 25.9387 119.001 25.1 119.001C23.876 119.001 22.8673 118.69 22.074 118.066C21.292 117.432 20.8727 116.525 20.816 115.346H22.686C22.7313 115.947 22.9637 116.44 23.383 116.825C23.8023 117.199 24.369 117.386 25.083 117.386C25.7743 117.386 26.307 117.199 26.681 116.825C27.055 116.44 27.242 115.947 27.242 115.346C27.242 114.553 26.987 113.992 26.477 113.663C25.9783 113.323 25.2077 113.153 24.165 113.153H23.723V111.555H24.182C25.1 111.544 25.797 111.391 26.273 111.096C26.7603 110.802 27.004 110.337 27.004 109.702C27.004 109.158 26.8283 108.728 26.477 108.41C26.1257 108.082 25.627 107.917 24.981 107.917C24.3463 107.917 23.8533 108.082 23.502 108.41C23.1507 108.728 22.941 109.124 22.873 109.6H20.986ZM31.1138 112.575C31.1138 110.615 31.4424 109.085 32.0998 107.985C32.7684 106.875 33.9131 106.319 35.5338 106.319C37.1544 106.319 38.2934 106.875 38.9508 107.985C39.6194 109.085 39.9538 110.615 39.9538 112.575C39.9538 114.559 39.6194 116.111 38.9508 117.233C38.2934 118.344 37.1544 118.899 35.5338 118.899C33.9131 118.899 32.7684 118.344 32.0998 117.233C31.4424 116.111 31.1138 114.559 31.1138 112.575ZM38.0498 112.575C38.0498 111.657 37.9874 110.881 37.8628 110.246C37.7494 109.612 37.5114 109.096 37.1488 108.699C36.7861 108.291 36.2478 108.087 35.5338 108.087C34.8198 108.087 34.2814 108.291 33.9188 108.699C33.5561 109.096 33.3124 109.612 33.1878 110.246C33.0744 110.881 33.0178 111.657 33.0178 112.575C33.0178 113.527 33.0744 114.326 33.1878 114.972C33.3011 115.618 33.5391 116.14 33.9018 116.536C34.2758 116.933 34.8198 117.131 35.5338 117.131C36.2478 117.131 36.7861 116.933 37.1488 116.536C37.5228 116.14 37.7664 115.618 37.8798 114.972C37.9931 114.326 38.0498 113.527 38.0498 112.575ZM42.0044 112.575C42.0044 110.615 42.333 109.085 42.9904 107.985C43.659 106.875 44.8037 106.319 46.4244 106.319C48.045 106.319 49.184 106.875 49.8414 107.985C50.51 109.085 50.8444 110.615 50.8444 112.575C50.8444 114.559 50.51 116.111 49.8414 117.233C49.184 118.344 48.045 118.899 46.4244 118.899C44.8037 118.899 43.659 118.344 42.9904 117.233C42.333 116.111 42.0044 114.559 42.0044 112.575ZM48.9404 112.575C48.9404 111.657 48.878 110.881 48.7534 110.246C48.64 109.612 48.402 109.096 48.0394 108.699C47.6767 108.291 47.1384 108.087 46.4244 108.087C45.7104 108.087 45.172 108.291 44.8094 108.699C44.4467 109.096 44.203 109.612 44.0784 110.246C43.965 110.881 43.9084 111.657 43.9084 112.575C43.9084 113.527 43.965 114.326 44.0784 114.972C44.1917 115.618 44.4297 116.14 44.7924 116.536C45.1664 116.933 45.7104 117.131 46.4244 117.131C47.1384 117.131 47.6767 116.933 48.0394 116.536C48.4134 116.14 48.657 115.618 48.7704 114.972C48.8837 114.326 48.9404 113.527 48.9404 112.575ZM58.539 107.39L59.304 108.75L56.975 109.617L59.304 110.484L58.522 111.878L56.584 110.348L56.941 112.813H55.377L55.7 110.348L53.762 111.912L52.946 110.467L55.258 109.6L52.946 108.767L53.728 107.373L55.717 108.903L55.377 106.421H56.958L56.584 108.903L58.539 107.39ZM61.2234 116.349V114.887L66.9354 106.693H69.2814V114.666H70.8624V116.349H69.2814V118.933H67.3774V116.349H61.2234ZM67.4624 108.665L63.4504 114.666H67.4624V108.665ZM72.4682 112.575C72.4682 110.615 72.7969 109.085 73.4542 107.985C74.1229 106.875 75.2676 106.319 76.8882 106.319C78.5089 106.319 79.6479 106.875 80.3052 107.985C80.9739 109.085 81.3082 110.615 81.3082 112.575C81.3082 114.559 80.9739 116.111 80.3052 117.233C79.6479 118.344 78.5089 118.899 76.8882 118.899C75.2676 118.899 74.1229 118.344 73.4542 117.233C72.7969 116.111 72.4682 114.559 72.4682 112.575ZM79.4042 112.575C79.4042 111.657 79.3419 110.881 79.2172 110.246C79.1039 109.612 78.8659 109.096 78.5032 108.699C78.1406 108.291 77.6022 108.087 76.8882 108.087C76.1742 108.087 75.6359 108.291 75.2732 108.699C74.9106 109.096 74.6669 109.612 74.5422 110.246C74.4289 110.881 74.3722 111.657 74.3722 112.575C74.3722 113.527 74.4289 114.326 74.5422 114.972C74.6556 115.618 74.8936 116.14 75.2562 116.536C75.6302 116.933 76.1742 117.131 76.8882 117.131C77.6022 117.131 78.1406 116.933 78.5032 116.536C78.8772 116.14 79.1209 115.618 79.2342 114.972C79.3476 114.326 79.4042 113.527 79.4042 112.575ZM83.3589 112.575C83.3589 110.615 83.6875 109.085 84.3449 107.985C85.0135 106.875 86.1582 106.319 87.7789 106.319C89.3995 106.319 90.5385 106.875 91.1959 107.985C91.8645 109.085 92.1989 110.615 92.1989 112.575C92.1989 114.559 91.8645 116.111 91.1959 117.233C90.5385 118.344 89.3995 118.899 87.7789 118.899C86.1582 118.899 85.0135 118.344 84.3449 117.233C83.6875 116.111 83.3589 114.559 83.3589 112.575ZM90.2949 112.575C90.2949 111.657 90.2325 110.881 90.1079 110.246C89.9945 109.612 89.7565 109.096 89.3939 108.699C89.0312 108.291 88.4929 108.087 87.7789 108.087C87.0649 108.087 86.5265 108.291 86.1639 108.699C85.8012 109.096 85.5575 109.612 85.4329 110.246C85.3195 110.881 85.2629 111.657 85.2629 112.575C85.2629 113.527 85.3195 114.326 85.4329 114.972C85.5462 115.618 85.7842 116.14 86.1469 116.536C86.5209 116.933 87.0649 117.131 87.7789 117.131C88.4929 117.131 89.0312 116.933 89.3939 116.536C89.7679 116.14 90.0115 115.618 90.1249 114.972C90.2382 114.326 90.2949 113.527 90.2949 112.575ZM96.4425 110.943C96.7712 110.513 97.2188 110.15 97.7855 109.855C98.3522 109.561 98.9925 109.413 99.7065 109.413C100.522 109.413 101.265 109.617 101.933 110.025C102.613 110.422 103.146 110.983 103.531 111.708C103.917 112.434 104.109 113.267 104.109 114.207C104.109 115.148 103.917 115.992 103.531 116.74C103.146 117.477 102.613 118.055 101.933 118.474C101.265 118.882 100.522 119.086 99.7065 119.086C98.9925 119.086 98.3578 118.945 97.8025 118.661C97.2472 118.367 96.7938 118.004 96.4425 117.573V123.387H94.5045V109.566H96.4425V110.943ZM102.137 114.207C102.137 113.561 102.001 113.006 101.729 112.541C101.469 112.065 101.117 111.708 100.675 111.47C100.245 111.221 99.7802 111.096 99.2815 111.096C98.7942 111.096 98.3295 111.221 97.8875 111.47C97.4568 111.72 97.1055 112.082 96.8335 112.558C96.5728 113.034 96.4425 113.595 96.4425 114.241C96.4425 114.887 96.5728 115.454 96.8335 115.941C97.1055 116.417 97.4568 116.78 97.8875 117.029C98.3295 117.279 98.7942 117.403 99.2815 117.403C99.7802 117.403 100.245 117.279 100.675 117.029C101.117 116.769 101.469 116.395 101.729 115.907C102.001 115.42 102.137 114.853 102.137 114.207ZM110.038 114.19L113.064 118.933H110.871L108.848 115.754L106.944 118.933H104.921L107.947 114.326L104.921 109.566H107.114L109.137 112.745L111.041 109.566H113.064L110.038 114.19Z" fill="black"/>
<path d="M22.268 30.62V38.96H20.9V30.62H22.268ZM32.0681 32.24C32.5881 32.24 33.0521 32.348 33.4601 32.564C33.8761 32.78 34.2001 33.1 34.4321 33.524C34.6721 33.948 34.7921 34.46 34.7921 35.06V38.96H33.4361V35.264C33.4361 34.672 33.2881 34.22 32.9921 33.908C32.6961 33.588 32.2921 33.428 31.7801 33.428C31.2681 33.428 30.8601 33.588 30.5561 33.908C30.2601 34.22 30.1121 34.672 30.1121 35.264V38.96H28.7561V35.264C28.7561 34.672 28.6081 34.22 28.3121 33.908C28.0161 33.588 27.6121 33.428 27.1001 33.428C26.5881 33.428 26.1801 33.588 25.8761 33.908C25.5801 34.22 25.4321 34.672 25.4321 35.264V38.96H24.0641V32.348H25.4321V33.104C25.6561 32.832 25.9401 32.62 26.2841 32.468C26.6281 32.316 26.9961 32.24 27.3881 32.24C27.9161 32.24 28.3881 32.352 28.8041 32.576C29.2201 32.8 29.5401 33.124 29.7641 33.548C29.9641 33.148 30.2761 32.832 30.7001 32.6C31.1241 32.36 31.5801 32.24 32.0681 32.24ZM36.0768 35.624C36.0768 34.96 36.2128 34.372 36.4848 33.86C36.7648 33.348 37.1408 32.952 37.6128 32.672C38.0928 32.384 38.6208 32.24 39.1968 32.24C39.7168 32.24 40.1688 32.344 40.5528 32.552C40.9448 32.752 41.2568 33.004 41.4888 33.308V32.348H42.8688V38.96H41.4888V37.976C41.2568 38.288 40.9408 38.548 40.5408 38.756C40.1408 38.964 39.6848 39.068 39.1728 39.068C38.6048 39.068 38.0848 38.924 37.6128 38.636C37.1408 38.34 36.7648 37.932 36.4848 37.412C36.2128 36.884 36.0768 36.288 36.0768 35.624ZM41.4888 35.648C41.4888 35.192 41.3928 34.796 41.2008 34.46C41.0168 34.124 40.7728 33.868 40.4688 33.692C40.1648 33.516 39.8368 33.428 39.4848 33.428C39.1328 33.428 38.8048 33.516 38.5008 33.692C38.1968 33.86 37.9488 34.112 37.7568 34.448C37.5728 34.776 37.4808 35.168 37.4808 35.624C37.4808 36.08 37.5728 36.48 37.7568 36.824C37.9488 37.168 38.1968 37.432 38.5008 37.616C38.8128 37.792 39.1408 37.88 39.4848 37.88C39.8368 37.88 40.1648 37.792 40.4688 37.616C40.7728 37.44 41.0168 37.184 41.2008 36.848C41.3928 36.504 41.4888 36.104 41.4888 35.648ZM47.3296 32.24C47.8416 32.24 48.2936 32.344 48.6856 32.552C49.0856 32.752 49.3976 33.004 49.6216 33.308V32.348H51.0016V39.068C51.0016 39.676 50.8736 40.216 50.6176 40.688C50.3616 41.168 49.9896 41.544 49.5016 41.816C49.0216 42.088 48.4456 42.224 47.7736 42.224C46.8776 42.224 46.1336 42.012 45.5416 41.588C44.9496 41.172 44.6136 40.604 44.5336 39.884H45.8896C45.9936 40.228 46.2136 40.504 46.5496 40.712C46.8936 40.928 47.3016 41.036 47.7736 41.036C48.3256 41.036 48.7696 40.868 49.1056 40.532C49.4496 40.196 49.6216 39.708 49.6216 39.068V37.964C49.3896 38.276 49.0736 38.54 48.6736 38.756C48.2816 38.964 47.8336 39.068 47.3296 39.068C46.7536 39.068 46.2256 38.924 45.7456 38.636C45.2736 38.34 44.8976 37.932 44.6176 37.412C44.3456 36.884 44.2096 36.288 44.2096 35.624C44.2096 34.96 44.3456 34.372 44.6176 33.86C44.8976 33.348 45.2736 32.952 45.7456 32.672C46.2256 32.384 46.7536 32.24 47.3296 32.24ZM49.6216 35.648C49.6216 35.192 49.5256 34.796 49.3336 34.46C49.1496 34.124 48.9056 33.868 48.6016 33.692C48.2976 33.516 47.9696 33.428 47.6176 33.428C47.2656 33.428 46.9376 33.516 46.6336 33.692C46.3296 33.86 46.0816 34.112 45.8896 34.448C45.7056 34.776 45.6136 35.168 45.6136 35.624C45.6136 36.08 45.7056 36.48 45.8896 36.824C46.0816 37.168 46.3296 37.432 46.6336 37.616C46.9456 37.792 47.2736 37.88 47.6176 37.88C47.9696 37.88 48.2976 37.792 48.6016 37.616C48.9056 37.44 49.1496 37.184 49.3336 36.848C49.5256 36.504 49.6216 36.104 49.6216 35.648ZM58.8584 35.492C58.8584 35.74 58.8424 35.964 58.8104 36.164H53.7584C53.7984 36.692 53.9944 37.116 54.3464 37.436C54.6984 37.756 55.1304 37.916 55.6424 37.916C56.3784 37.916 56.8984 37.608 57.2024 36.992H58.6784C58.4784 37.6 58.1144 38.1 57.5864 38.492C57.0664 38.876 56.4184 39.068 55.6424 39.068C55.0104 39.068 54.4424 38.928 53.9384 38.648C53.4424 38.36 53.0504 37.96 52.7624 37.448C52.4824 36.928 52.3424 36.328 52.3424 35.648C52.3424 34.968 52.4784 34.372 52.7504 33.86C53.0304 33.34 53.4184 32.94 53.9144 32.66C54.4184 32.38 54.9944 32.24 55.6424 32.24C56.2664 32.24 56.8224 32.376 57.3104 32.648C57.7984 32.92 58.1784 33.304 58.4504 33.8C58.7224 34.288 58.8584 34.852 58.8584 35.492ZM57.4304 35.06C57.4224 34.556 57.2424 34.152 56.8904 33.848C56.5384 33.544 56.1024 33.392 55.5824 33.392C55.1104 33.392 54.7064 33.544 54.3704 33.848C54.0344 34.144 53.8344 34.548 53.7704 35.06H57.4304ZM69.3099 32.348V38.96H67.9419V38.18C67.7259 38.452 67.4419 38.668 67.0899 38.828C66.7459 38.98 66.3779 39.056 65.9859 39.056C65.4659 39.056 64.9979 38.948 64.5819 38.732C64.1739 38.516 63.8499 38.196 63.6099 37.772C63.3779 37.348 63.2619 36.836 63.2619 36.236V32.348H64.6179V36.032C64.6179 36.624 64.7659 37.08 65.0619 37.4C65.3579 37.712 65.7619 37.868 66.2739 37.868C66.7859 37.868 67.1899 37.712 67.4859 37.4C67.7899 37.08 67.9419 36.624 67.9419 36.032V32.348H69.3099ZM73.5148 39.068C72.9948 39.068 72.5268 38.976 72.1108 38.792C71.7028 38.6 71.3788 38.344 71.1388 38.024C70.8988 37.696 70.7708 37.332 70.7548 36.932H72.1708C72.1948 37.212 72.3268 37.448 72.5668 37.64C72.8148 37.824 73.1228 37.916 73.4908 37.916C73.8748 37.916 74.1708 37.844 74.3788 37.7C74.5948 37.548 74.7028 37.356 74.7028 37.124C74.7028 36.876 74.5828 36.692 74.3428 36.572C74.1108 36.452 73.7388 36.32 73.2268 36.176C72.7308 36.04 72.3268 35.908 72.0148 35.78C71.7028 35.652 71.4308 35.456 71.1988 35.192C70.9748 34.928 70.8628 34.58 70.8628 34.148C70.8628 33.796 70.9668 33.476 71.1748 33.188C71.3828 32.892 71.6788 32.66 72.0628 32.492C72.4548 32.324 72.9028 32.24 73.4068 32.24C74.1588 32.24 74.7628 32.432 75.2188 32.816C75.6828 33.192 75.9308 33.708 75.9628 34.364H74.5948C74.5708 34.068 74.4508 33.832 74.2348 33.656C74.0188 33.48 73.7268 33.392 73.3588 33.392C72.9988 33.392 72.7228 33.46 72.5308 33.596C72.3388 33.732 72.2428 33.912 72.2428 34.136C72.2428 34.312 72.3068 34.46 72.4348 34.58C72.5628 34.7 72.7188 34.796 72.9028 34.868C73.0868 34.932 73.3588 35.016 73.7188 35.12C74.1988 35.248 74.5908 35.38 74.8948 35.516C75.2068 35.644 75.4748 35.836 75.6988 36.092C75.9228 36.348 76.0388 36.688 76.0468 37.112C76.0468 37.488 75.9428 37.824 75.7348 38.12C75.5268 38.416 75.2308 38.648 74.8468 38.816C74.4708 38.984 74.0268 39.068 73.5148 39.068ZM83.585 35.492C83.585 35.74 83.569 35.964 83.537 36.164H78.485C78.525 36.692 78.721 37.116 79.073 37.436C79.425 37.756 79.857 37.916 80.369 37.916C81.105 37.916 81.625 37.608 81.929 36.992H83.405C83.205 37.6 82.841 38.1 82.313 38.492C81.793 38.876 81.145 39.068 80.369 39.068C79.737 39.068 79.169 38.928 78.665 38.648C78.169 38.36 77.777 37.96 77.489 37.448C77.209 36.928 77.069 36.328 77.069 35.648C77.069 34.968 77.205 34.372 77.477 33.86C77.757 33.34 78.145 32.94 78.641 32.66C79.145 32.38 79.721 32.24 80.369 32.24C80.993 32.24 81.549 32.376 82.037 32.648C82.525 32.92 82.905 33.304 83.177 33.8C83.449 34.288 83.585 34.852 83.585 35.492ZM82.157 35.06C82.149 34.556 81.969 34.152 81.617 33.848C81.265 33.544 80.829 33.392 80.309 33.392C79.837 33.392 79.433 33.544 79.097 33.848C78.761 34.144 78.561 34.548 78.497 35.06H82.157ZM84.4753 35.624C84.4753 34.96 84.6113 34.372 84.8833 33.86C85.1633 33.348 85.5393 32.952 86.0113 32.672C86.4913 32.384 87.0233 32.24 87.6073 32.24C88.0393 32.24 88.4633 32.336 88.8793 32.528C89.3033 32.712 89.6393 32.96 89.8873 33.272V30.08H91.2673V38.96H89.8873V37.964C89.6633 38.284 89.3513 38.548 88.9513 38.756C88.5593 38.964 88.1073 39.068 87.5953 39.068C87.0193 39.068 86.4913 38.924 86.0113 38.636C85.5393 38.34 85.1633 37.932 84.8833 37.412C84.6113 36.884 84.4753 36.288 84.4753 35.624ZM89.8873 35.648C89.8873 35.192 89.7913 34.796 89.5993 34.46C89.4153 34.124 89.1713 33.868 88.8673 33.692C88.5633 33.516 88.2353 33.428 87.8833 33.428C87.5313 33.428 87.2033 33.516 86.8993 33.692C86.5953 33.86 86.3473 34.112 86.1553 34.448C85.9713 34.776 85.8793 35.168 85.8793 35.624C85.8793 36.08 85.9713 36.48 86.1553 36.824C86.3473 37.168 86.5953 37.432 86.8993 37.616C87.2113 37.792 87.5393 37.88 87.8833 37.88C88.2353 37.88 88.5633 37.792 88.8673 37.616C89.1713 37.44 89.4153 37.184 89.5993 36.848C89.7913 36.504 89.8873 36.104 89.8873 35.648ZM96.7333 39.044C96.4853 39.044 96.2773 38.96 96.1093 38.792C95.9413 38.624 95.8573 38.416 95.8573 38.168C95.8573 37.92 95.9413 37.712 96.1093 37.544C96.2773 37.376 96.4853 37.292 96.7333 37.292C96.9733 37.292 97.1773 37.376 97.3453 37.544C97.5133 37.712 97.5973 37.92 97.5973 38.168C97.5973 38.416 97.5133 38.624 97.3453 38.792C97.1773 38.96 96.9733 39.044 96.7333 39.044ZM96.7333 34.004C96.4853 34.004 96.2773 33.92 96.1093 33.752C95.9413 33.584 95.8573 33.376 95.8573 33.128C95.8573 32.88 95.9413 32.672 96.1093 32.504C96.2773 32.336 96.4853 32.252 96.7333 32.252C96.9733 32.252 97.1773 32.336 97.3453 32.504C97.5133 32.672 97.5973 32.88 97.5973 33.128C97.5973 33.376 97.5133 33.584 97.3453 33.752C97.1773 33.92 96.9733 34.004 96.7333 34.004Z" fill="black" fill-opacity="0.39"/>
<path d="M20.596 83.0586C20.348 83.0586 20.14 82.9746 19.972 82.8066C19.804 82.6386 19.72 82.4306 19.72 82.1826C19.72 81.9346 19.804 81.7266 19.972 81.5586C20.14 81.3906 20.348 81.3066 20.596 81.3066C20.836 81.3066 21.04 81.3906 21.208 81.5586C21.376 81.7266 21.46 81.9346 21.46 82.1826C21.46 82.4306 21.376 82.6386 21.208 82.8066C21.04 82.9746 20.836 83.0586 20.596 83.0586ZM21.268 83.9346V90.5466H19.9V83.9346H21.268ZM31.0681 83.8266C31.5881 83.8266 32.0521 83.9346 32.4601 84.1506C32.8761 84.3666 33.2001 84.6866 33.4321 85.1106C33.6721 85.5346 33.7921 86.0466 33.7921 86.6466V90.5466H32.4361V86.8506C32.4361 86.2586 32.2881 85.8066 31.9921 85.4946C31.6961 85.1746 31.2921 85.0146 30.7801 85.0146C30.2681 85.0146 29.8601 85.1746 29.5561 85.4946C29.2601 85.8066 29.1121 86.2586 29.1121 86.8506V90.5466H27.7561V86.8506C27.7561 86.2586 27.6081 85.8066 27.3121 85.4946C27.0161 85.1746 26.6121 85.0146 26.1001 85.0146C25.5881 85.0146 25.1801 85.1746 24.8761 85.4946C24.5801 85.8066 24.4321 86.2586 24.4321 86.8506V90.5466H23.0641V83.9346H24.4321V84.6906C24.6561 84.4186 24.9401 84.2066 25.2841 84.0546C25.6281 83.9026 25.9961 83.8266 26.3881 83.8266C26.9161 83.8266 27.3881 83.9386 27.8041 84.1626C28.2201 84.3866 28.5401 84.7106 28.7641 85.1346C28.9641 84.7346 29.2761 84.4186 29.7001 84.1866C30.1241 83.9466 30.5801 83.8266 31.0681 83.8266ZM35.0768 87.2106C35.0768 86.5466 35.2128 85.9586 35.4848 85.4466C35.7648 84.9346 36.1408 84.5386 36.6128 84.2586C37.0928 83.9706 37.6208 83.8266 38.1968 83.8266C38.7168 83.8266 39.1688 83.9306 39.5528 84.1386C39.9448 84.3386 40.2568 84.5906 40.4888 84.8946V83.9346H41.8688V90.5466H40.4888V89.5626C40.2568 89.8746 39.9408 90.1346 39.5408 90.3426C39.1408 90.5506 38.6848 90.6546 38.1728 90.6546C37.6048 90.6546 37.0848 90.5106 36.6128 90.2226C36.1408 89.9266 35.7648 89.5186 35.4848 88.9986C35.2128 88.4706 35.0768 87.8746 35.0768 87.2106ZM40.4888 87.2346C40.4888 86.7786 40.3928 86.3826 40.2008 86.0466C40.0168 85.7106 39.7728 85.4546 39.4688 85.2786C39.1648 85.1026 38.8368 85.0146 38.4848 85.0146C38.1328 85.0146 37.8048 85.1026 37.5008 85.2786C37.1968 85.4466 36.9488 85.6986 36.7568 86.0346C36.5728 86.3626 36.4808 86.7546 36.4808 87.2106C36.4808 87.6666 36.5728 88.0666 36.7568 88.4106C36.9488 88.7546 37.1968 89.0186 37.5008 89.2026C37.8128 89.3786 38.1408 89.4666 38.4848 89.4666C38.8368 89.4666 39.1648 89.3786 39.4688 89.2026C39.7728 89.0266 40.0168 88.7706 40.2008 88.4346C40.3928 88.0906 40.4888 87.6906 40.4888 87.2346ZM46.3296 83.8266C46.8416 83.8266 47.2936 83.9306 47.6856 84.1386C48.0856 84.3386 48.3976 84.5906 48.6216 84.8946V83.9346H50.0016V90.6546C50.0016 91.2626 49.8736 91.8026 49.6176 92.2746C49.3616 92.7546 48.9896 93.1306 48.5016 93.4026C48.0216 93.6746 47.4456 93.8106 46.7736 93.8106C45.8776 93.8106 45.1336 93.5986 44.5416 93.1746C43.9496 92.7586 43.6136 92.1906 43.5336 91.4706H44.8896C44.9936 91.8146 45.2136 92.0906 45.5496 92.2986C45.8936 92.5146 46.3016 92.6226 46.7736 92.6226C47.3256 92.6226 47.7696 92.4546 48.1056 92.1186C48.4496 91.7826 48.6216 91.2946 48.6216 90.6546V89.5506C48.3896 89.8626 48.0736 90.1266 47.6736 90.3426C47.2816 90.5506 46.8336 90.6546 46.3296 90.6546C45.7536 90.6546 45.2256 90.5106 44.7456 90.2226C44.2736 89.9266 43.8976 89.5186 43.6176 88.9986C43.3456 88.4706 43.2096 87.8746 43.2096 87.2106C43.2096 86.5466 43.3456 85.9586 43.6176 85.4466C43.8976 84.9346 44.2736 84.5386 44.7456 84.2586C45.2256 83.9706 45.7536 83.8266 46.3296 83.8266ZM48.6216 87.2346C48.6216 86.7786 48.5256 86.3826 48.3336 86.0466C48.1496 85.7106 47.9056 85.4546 47.6016 85.2786C47.2976 85.1026 46.9696 85.0146 46.6176 85.0146C46.2656 85.0146 45.9376 85.1026 45.6336 85.2786C45.3296 85.4466 45.0816 85.6986 44.8896 86.0346C44.7056 86.3626 44.6136 86.7546 44.6136 87.2106C44.6136 87.6666 44.7056 88.0666 44.8896 88.4106C45.0816 88.7546 45.3296 89.0186 45.6336 89.2026C45.9456 89.3786 46.2736 89.4666 46.6176 89.4666C46.9696 89.4666 47.2976 89.3786 47.6016 89.2026C47.9056 89.0266 48.1496 88.7706 48.3336 88.4346C48.5256 88.0906 48.6216 87.6906 48.6216 87.2346ZM57.8584 87.0786C57.8584 87.3266 57.8424 87.5506 57.8104 87.7506H52.7584C52.7984 88.2786 52.9944 88.7026 53.3464 89.0226C53.6984 89.3426 54.1304 89.5026 54.6424 89.5026C55.3784 89.5026 55.8984 89.1946 56.2024 88.5786H57.6784C57.4784 89.1866 57.1144 89.6866 56.5864 90.0786C56.0664 90.4626 55.4184 90.6546 54.6424 90.6546C54.0104 90.6546 53.4424 90.5146 52.9384 90.2346C52.4424 89.9466 52.0504 89.5466 51.7624 89.0346C51.4824 88.5146 51.3424 87.9146 51.3424 87.2346C51.3424 86.5546 51.4784 85.9586 51.7504 85.4466C52.0304 84.9266 52.4184 84.5266 52.9144 84.2466C53.4184 83.9666 53.9944 83.8266 54.6424 83.8266C55.2664 83.8266 55.8224 83.9626 56.3104 84.2346C56.7984 84.5066 57.1784 84.8906 57.4504 85.3866C57.7224 85.8746 57.8584 86.4386 57.8584 87.0786ZM56.4304 86.6466C56.4224 86.1426 56.2424 85.7386 55.8904 85.4346C55.5384 85.1306 55.1024 84.9786 54.5824 84.9786C54.1104 84.9786 53.7064 85.1306 53.3704 85.4346C53.0344 85.7306 52.8344 86.1346 52.7704 86.6466H56.4304ZM64.2807 85.6266V86.7786H59.3487V85.6266H64.2807ZM68.6242 90.6546C68.1042 90.6546 67.6362 90.5626 67.2202 90.3786C66.8122 90.1866 66.4882 89.9306 66.2482 89.6106C66.0082 89.2826 65.8802 88.9186 65.8642 88.5186H67.2802C67.3042 88.7986 67.4362 89.0346 67.6762 89.2266C67.9242 89.4106 68.2322 89.5026 68.6002 89.5026C68.9842 89.5026 69.2802 89.4306 69.4882 89.2866C69.7042 89.1346 69.8122 88.9426 69.8122 88.7106C69.8122 88.4626 69.6922 88.2786 69.4522 88.1586C69.2202 88.0386 68.8482 87.9066 68.3362 87.7626C67.8402 87.6266 67.4362 87.4946 67.1242 87.3666C66.8122 87.2386 66.5402 87.0426 66.3082 86.7786C66.0842 86.5146 65.9722 86.1666 65.9722 85.7346C65.9722 85.3826 66.0762 85.0626 66.2842 84.7746C66.4922 84.4786 66.7882 84.2466 67.1722 84.0786C67.5642 83.9106 68.0122 83.8266 68.5162 83.8266C69.2682 83.8266 69.8722 84.0186 70.3282 84.4026C70.7922 84.7786 71.0402 85.2946 71.0722 85.9506H69.7042C69.6802 85.6546 69.5602 85.4186 69.3442 85.2426C69.1282 85.0666 68.8362 84.9786 68.4682 84.9786C68.1082 84.9786 67.8322 85.0466 67.6402 85.1826C67.4482 85.3186 67.3522 85.4986 67.3522 85.7226C67.3522 85.8986 67.4162 86.0466 67.5442 86.1666C67.6722 86.2866 67.8282 86.3826 68.0122 86.4546C68.1962 86.5186 68.4682 86.6026 68.8282 86.7066C69.3082 86.8346 69.7002 86.9666 70.0042 87.1026C70.3162 87.2306 70.5842 87.4226 70.8082 87.6786C71.0322 87.9346 71.1482 88.2746 71.1562 88.6986C71.1562 89.0746 71.0522 89.4106 70.8442 89.7066C70.6362 90.0026 70.3402 90.2346 69.9562 90.4026C69.5802 90.5706 69.1362 90.6546 68.6242 90.6546ZM73.3304 83.0586C73.0824 83.0586 72.8744 82.9746 72.7064 82.8066C72.5384 82.6386 72.4544 82.4306 72.4544 82.1826C72.4544 81.9346 72.5384 81.7266 72.7064 81.5586C72.8744 81.3906 73.0824 81.3066 73.3304 81.3066C73.5704 81.3066 73.7744 81.3906 73.9424 81.5586C74.1104 81.7266 74.1944 81.9346 74.1944 82.1826C74.1944 82.4306 74.1104 82.6386 73.9424 82.8066C73.7744 82.9746 73.5704 83.0586 73.3304 83.0586ZM74.0024 83.9346V90.5466H72.6344V83.9346H74.0024ZM77.0104 89.4306H80.0104V90.5466H75.4264V89.4306L78.4384 85.0506H75.4264V83.9346H80.0104V85.0506L77.0104 89.4306ZM87.5069 87.0786C87.5069 87.3266 87.4909 87.5506 87.4589 87.7506H82.4069C82.4469 88.2786 82.6429 88.7026 82.9949 89.0226C83.3469 89.3426 83.7789 89.5026 84.2909 89.5026C85.0269 89.5026 85.5469 89.1946 85.8509 88.5786H87.3269C87.1269 89.1866 86.7629 89.6866 86.2349 90.0786C85.7149 90.4626 85.0669 90.6546 84.2909 90.6546C83.6589 90.6546 83.0909 90.5146 82.5869 90.2346C82.0909 89.9466 81.6989 89.5466 81.4109 89.0346C81.1309 88.5146 80.9909 87.9146 80.9909 87.2346C80.9909 86.5546 81.1269 85.9586 81.3989 85.4466C81.6789 84.9266 82.0669 84.5266 82.5629 84.2466C83.0669 83.9666 83.6429 83.8266 84.2909 83.8266C84.9149 83.8266 85.4709 83.9626 85.9589 84.2346C86.4469 84.5066 86.8269 84.8906 87.0989 85.3866C87.3709 85.8746 87.5069 86.4386 87.5069 87.0786ZM86.0789 86.6466C86.0709 86.1426 85.8909 85.7386 85.5389 85.4346C85.1869 85.1306 84.7509 84.9786 84.2309 84.9786C83.7589 84.9786 83.3549 85.1306 83.0189 85.4346C82.6829 85.7306 82.4829 86.1346 82.4189 86.6466H86.0789ZM89.4051 90.6306C89.1571 90.6306 88.9491 90.5466 88.7811 90.3786C88.6131 90.2106 88.5291 90.0026 88.5291 89.7546C88.5291 89.5066 88.6131 89.2986 88.7811 89.1306C88.9491 88.9626 89.1571 88.8786 89.4051 88.8786C89.6451 88.8786 89.8491 88.9626 90.0171 89.1306C90.1851 89.2986 90.2691 89.5066 90.2691 89.7546C90.2691 90.0026 90.1851 90.2106 90.0171 90.3786C89.8491 90.5466 89.6451 90.6306 89.4051 90.6306ZM89.4051 85.5906C89.1571 85.5906 88.9491 85.5066 88.7811 85.3386C88.6131 85.1706 88.5291 84.9626 88.5291 84.7146C88.5291 84.4666 88.6131 84.2586 88.7811 84.0906C88.9491 83.9226 89.1571 83.8386 89.4051 83.8386C89.6451 83.8386 89.8491 83.9226 90.0171 84.0906C90.1851 84.2586 90.2691 84.4666 90.2691 84.7146C90.2691 84.9626 90.1851 85.1706 90.0171 85.3386C89.8491 85.5066 89.6451 85.5906 89.4051 85.5906Z" fill="black" fill-opacity="0.39"/>
<path d="M23.648 143.191C23.088 143.191 22.584 143.095 22.136 142.903C21.688 142.703 21.336 142.423 21.08 142.063C20.824 141.703 20.696 141.283 20.696 140.803H22.16C22.192 141.163 22.332 141.459 22.58 141.691C22.836 141.923 23.192 142.039 23.648 142.039C24.12 142.039 24.488 141.927 24.752 141.703C25.016 141.471 25.148 141.175 25.148 140.815C25.148 140.535 25.064 140.307 24.896 140.131C24.736 139.955 24.532 139.819 24.284 139.723C24.044 139.627 23.708 139.523 23.276 139.411C22.732 139.267 22.288 139.123 21.944 138.979C21.608 138.827 21.32 138.595 21.08 138.283C20.84 137.971 20.72 137.555 20.72 137.035C20.72 136.555 20.84 136.135 21.08 135.775C21.32 135.415 21.656 135.139 22.088 134.947C22.52 134.755 23.02 134.659 23.588 134.659C24.396 134.659 25.056 134.863 25.568 135.271C26.088 135.671 26.376 136.223 26.432 136.927H24.92C24.896 136.623 24.752 136.363 24.488 136.147C24.224 135.931 23.876 135.823 23.444 135.823C23.052 135.823 22.732 135.923 22.484 136.123C22.236 136.323 22.112 136.611 22.112 136.987C22.112 137.243 22.188 137.455 22.34 137.623C22.5 137.783 22.7 137.911 22.94 138.007C23.18 138.103 23.508 138.207 23.924 138.319C24.476 138.471 24.924 138.623 25.268 138.775C25.62 138.927 25.916 139.163 26.156 139.483C26.404 139.795 26.528 140.215 26.528 140.743C26.528 141.167 26.412 141.567 26.18 141.943C25.956 142.319 25.624 142.623 25.184 142.855C24.752 143.079 24.24 143.191 23.648 143.191ZM31.0102 143.215C30.3862 143.215 29.8222 143.075 29.3182 142.795C28.8142 142.507 28.4182 142.107 28.1302 141.595C27.8422 141.075 27.6982 140.475 27.6982 139.795C27.6982 139.123 27.8462 138.527 28.1422 138.007C28.4382 137.487 28.8422 137.087 29.3542 136.807C29.8662 136.527 30.4382 136.387 31.0702 136.387C31.7022 136.387 32.2742 136.527 32.7862 136.807C33.2982 137.087 33.7022 137.487 33.9982 138.007C34.2942 138.527 34.4422 139.123 34.4422 139.795C34.4422 140.467 34.2902 141.063 33.9862 141.583C33.6822 142.103 33.2662 142.507 32.7382 142.795C32.2182 143.075 31.6422 143.215 31.0102 143.215ZM31.0102 142.027C31.3622 142.027 31.6902 141.943 31.9942 141.775C32.3062 141.607 32.5582 141.355 32.7502 141.019C32.9422 140.683 33.0382 140.275 33.0382 139.795C33.0382 139.315 32.9462 138.911 32.7622 138.583C32.5782 138.247 32.3342 137.995 32.0302 137.827C31.7262 137.659 31.3982 137.575 31.0462 137.575C30.6942 137.575 30.3662 137.659 30.0622 137.827C29.7662 137.995 29.5302 138.247 29.3542 138.583C29.1782 138.911 29.0902 139.315 29.0902 139.795C29.0902 140.507 29.2702 141.059 29.6302 141.451C29.9982 141.835 30.4582 142.027 31.0102 142.027ZM41.7825 136.495V143.107H40.4145V142.327C40.1985 142.599 39.9145 142.815 39.5625 142.975C39.2185 143.127 38.8505 143.203 38.4585 143.203C37.9385 143.203 37.4705 143.095 37.0545 142.879C36.6465 142.663 36.3225 142.343 36.0825 141.919C35.8505 141.495 35.7345 140.983 35.7345 140.383V136.495H37.0905V140.179C37.0905 140.771 37.2385 141.227 37.5345 141.547C37.8305 141.859 38.2345 142.015 38.7465 142.015C39.2585 142.015 39.6625 141.859 39.9585 141.547C40.2625 141.227 40.4145 140.771 40.4145 140.179V136.495H41.7825ZM44.9555 137.455C45.1555 137.119 45.4195 136.859 45.7475 136.675C46.0835 136.483 46.4795 136.387 46.9355 136.387V137.803H46.5875C46.0515 137.803 45.6435 137.939 45.3635 138.211C45.0915 138.483 44.9555 138.955 44.9555 139.627V143.107H43.5875V136.495H44.9555V137.455ZM47.737 139.795C47.737 139.115 47.873 138.519 48.145 138.007C48.425 137.487 48.809 137.087 49.297 136.807C49.785 136.527 50.345 136.387 50.977 136.387C51.777 136.387 52.437 136.579 52.957 136.963C53.485 137.339 53.841 137.879 54.025 138.583H52.549C52.429 138.255 52.237 137.999 51.973 137.815C51.709 137.631 51.377 137.539 50.977 137.539C50.417 137.539 49.969 137.739 49.633 138.139C49.305 138.531 49.141 139.083 49.141 139.795C49.141 140.507 49.305 141.063 49.633 141.463C49.969 141.863 50.417 142.063 50.977 142.063C51.769 142.063 52.293 141.715 52.549 141.019H54.025C53.833 141.691 53.473 142.227 52.945 142.627C52.417 143.019 51.761 143.215 50.977 143.215C50.345 143.215 49.785 143.075 49.297 142.795C48.809 142.507 48.425 142.107 48.145 141.595C47.873 141.075 47.737 140.475 47.737 139.795ZM61.4483 139.639C61.4483 139.887 61.4323 140.111 61.4003 140.311H56.3483C56.3883 140.839 56.5843 141.263 56.9363 141.583C57.2883 141.903 57.7203 142.063 58.2323 142.063C58.9683 142.063 59.4883 141.755 59.7923 141.139H61.2683C61.0683 141.747 60.7043 142.247 60.1763 142.639C59.6563 143.023 59.0083 143.215 58.2323 143.215C57.6003 143.215 57.0323 143.075 56.5283 142.795C56.0323 142.507 55.6403 142.107 55.3523 141.595C55.0723 141.075 54.9323 140.475 54.9323 139.795C54.9323 139.115 55.0683 138.519 55.3403 138.007C55.6203 137.487 56.0083 137.087 56.5043 136.807C57.0083 136.527 57.5843 136.387 58.2323 136.387C58.8563 136.387 59.4123 136.523 59.9003 136.795C60.3883 137.067 60.7683 137.451 61.0403 137.947C61.3123 138.435 61.4483 138.999 61.4483 139.639ZM60.0203 139.207C60.0123 138.703 59.8323 138.299 59.4803 137.995C59.1283 137.691 58.6923 137.539 58.1723 137.539C57.7003 137.539 57.2963 137.691 56.9603 137.995C56.6243 138.291 56.4243 138.695 56.3603 139.207H60.0203ZM66.4637 143.191C66.2157 143.191 66.0077 143.107 65.8397 142.939C65.6717 142.771 65.5877 142.563 65.5877 142.315C65.5877 142.067 65.6717 141.859 65.8397 141.691C66.0077 141.523 66.2157 141.439 66.4637 141.439C66.7037 141.439 66.9077 141.523 67.0757 141.691C67.2437 141.859 67.3277 142.067 67.3277 142.315C67.3277 142.563 67.2437 142.771 67.0757 142.939C66.9077 143.107 66.7037 143.191 66.4637 143.191ZM66.4637 138.151C66.2157 138.151 66.0077 138.067 65.8397 137.899C65.6717 137.731 65.5877 137.523 65.5877 137.275C65.5877 137.027 65.6717 136.819 65.8397 136.651C66.0077 136.483 66.2157 136.399 66.4637 136.399C66.7037 136.399 66.9077 136.483 67.0757 136.651C67.2437 136.819 67.3277 137.027 67.3277 137.275C67.3277 137.523 67.2437 137.731 67.0757 137.899C66.9077 138.067 66.7037 138.151 66.4637 138.151ZM73.3383 137.467C73.5703 137.163 73.8863 136.907 74.2863 136.699C74.6863 136.491 75.1383 136.387 75.6423 136.387C76.2183 136.387 76.7423 136.531 77.2143 136.819C77.6943 137.099 78.0703 137.495 78.3423 138.007C78.6143 138.519 78.7503 139.107 78.7503 139.771C78.7503 140.435 78.6143 141.031 78.3423 141.559C78.0703 142.079 77.6943 142.487 77.2143 142.783C76.7423 143.071 76.2183 143.215 75.6423 143.215C75.1383 143.215 74.6903 143.115 74.2983 142.915C73.9063 142.707 73.5863 142.451 73.3383 142.147V146.251H71.9703V136.495H73.3383V137.467ZM77.3583 139.771C77.3583 139.315 77.2623 138.923 77.0703 138.595C76.8863 138.259 76.6383 138.007 76.3263 137.839C76.0223 137.663 75.6943 137.575 75.3423 137.575C74.9983 137.575 74.6703 137.663 74.3583 137.839C74.0543 138.015 73.8063 138.271 73.6143 138.607C73.4303 138.943 73.3383 139.339 73.3383 139.795C73.3383 140.251 73.4303 140.651 73.6143 140.995C73.8063 141.331 74.0543 141.587 74.3583 141.763C74.6703 141.939 74.9983 142.027 75.3423 142.027C75.6943 142.027 76.0223 141.939 76.3263 141.763C76.6383 141.579 76.8863 141.315 77.0703 140.971C77.2623 140.627 77.3583 140.227 77.3583 139.771ZM80.7991 135.619C80.5511 135.619 80.3431 135.535 80.1751 135.367C80.0071 135.199 79.9231 134.991 79.9231 134.743C79.9231 134.495 80.0071 134.287 80.1751 134.119C80.3431 133.951 80.5511 133.867 80.7991 133.867C81.0391 133.867 81.2431 133.951 81.4111 134.119C81.5791 134.287 81.6631 134.495 81.6631 134.743C81.6631 134.991 81.5791 135.199 81.4111 135.367C81.2431 135.535 81.0391 135.619 80.7991 135.619ZM81.4711 136.495V143.107H80.1031V136.495H81.4711ZM86.0992 139.759L88.2352 143.107H86.6872L85.2592 140.863L83.9152 143.107H82.4872L84.6232 139.855L82.4872 136.495H84.0352L85.4632 138.739L86.8072 136.495H88.2352L86.0992 139.759ZM88.7995 139.771C88.7995 139.107 88.9355 138.519 89.2075 138.007C89.4875 137.495 89.8635 137.099 90.3355 136.819C90.8155 136.531 91.3435 136.387 91.9195 136.387C92.4395 136.387 92.8915 136.491 93.2755 136.699C93.6675 136.899 93.9795 137.151 94.2115 137.455V136.495H95.5915V143.107H94.2115V142.123C93.9795 142.435 93.6635 142.695 93.2635 142.903C92.8635 143.111 92.4075 143.215 91.8955 143.215C91.3275 143.215 90.8075 143.071 90.3355 142.783C89.8635 142.487 89.4875 142.079 89.2075 141.559C88.9355 141.031 88.7995 140.435 88.7995 139.771ZM94.2115 139.795C94.2115 139.339 94.1155 138.943 93.9235 138.607C93.7395 138.271 93.4955 138.015 93.1915 137.839C92.8875 137.663 92.5595 137.575 92.2075 137.575C91.8555 137.575 91.5275 137.663 91.2235 137.839C90.9195 138.007 90.6715 138.259 90.4795 138.595C90.2955 138.923 90.2035 139.315 90.2035 139.771C90.2035 140.227 90.2955 140.627 90.4795 140.971C90.6715 141.315 90.9195 141.579 91.2235 141.763C91.5355 141.939 91.8635 142.027 92.2075 142.027C92.5595 142.027 92.8875 141.939 93.1915 141.763C93.4955 141.587 93.7395 141.331 93.9235 140.995C94.1155 140.651 94.2115 140.251 94.2115 139.795ZM98.7563 134.227V143.107H97.3883V134.227H98.7563ZM101.92 137.479C102.152 137.159 102.468 136.899 102.868 136.699C103.276 136.491 103.728 136.387 104.224 136.387C104.808 136.387 105.336 136.527 105.808 136.807C106.28 137.087 106.652 137.487 106.924 138.007C107.196 138.519 107.332 139.107 107.332 139.771C107.332 140.435 107.196 141.031 106.924 141.559C106.652 142.079 106.276 142.487 105.796 142.783C105.324 143.071 104.8 143.215 104.224 143.215C103.712 143.215 103.256 143.115 102.856 142.915C102.464 142.715 102.152 142.459 101.92 142.147V143.107H100.552V134.227H101.92V137.479ZM105.94 139.771C105.94 139.315 105.844 138.923 105.652 138.595C105.468 138.259 105.22 138.007 104.908 137.839C104.604 137.663 104.276 137.575 103.924 137.575C103.58 137.575 103.252 137.663 102.94 137.839C102.636 138.015 102.388 138.271 102.196 138.607C102.012 138.943 101.92 139.339 101.92 139.795C101.92 140.251 102.012 140.651 102.196 140.995C102.388 141.331 102.636 141.587 102.94 141.763C103.252 141.939 103.58 142.027 103.924 142.027C104.276 142.027 104.604 141.939 104.908 141.763C105.22 141.579 105.468 141.315 105.652 140.971C105.844 140.627 105.94 140.227 105.94 139.771ZM108.229 139.771C108.229 139.107 108.365 138.519 108.637 138.007C108.917 137.495 109.293 137.099 109.765 136.819C110.245 136.531 110.773 136.387 111.349 136.387C111.869 136.387 112.321 136.491 112.705 136.699C113.097 136.899 113.409 137.151 113.641 137.455V136.495H115.021V143.107H113.641V142.123C113.409 142.435 113.093 142.695 112.693 142.903C112.293 143.111 111.837 143.215 111.325 143.215C110.757 143.215 110.237 143.071 109.765 142.783C109.293 142.487 108.917 142.079 108.637 141.559C108.365 141.031 108.229 140.435 108.229 139.771ZM113.641 139.795C113.641 139.339 113.545 138.943 113.353 138.607C113.169 138.271 112.925 138.015 112.621 137.839C112.317 137.663 111.989 137.575 111.637 137.575C111.285 137.575 110.957 137.663 110.653 137.839C110.349 138.007 110.101 138.259 109.909 138.595C109.725 138.923 109.633 139.315 109.633 139.771C109.633 140.227 109.725 140.627 109.909 140.971C110.101 141.315 110.349 141.579 110.653 141.763C110.965 141.939 111.293 142.027 111.637 142.027C111.989 142.027 112.317 141.939 112.621 141.763C112.925 141.587 113.169 141.331 113.353 140.995C113.545 140.651 113.641 140.251 113.641 139.795ZM122.77 136.495L118.714 146.215H117.298L118.642 142.999L116.038 136.495H117.562L119.422 141.535L121.354 136.495H122.77ZM124.354 143.191C124.106 143.191 123.898 143.107 123.73 142.939C123.562 142.771 123.478 142.563 123.478 142.315C123.478 142.067 123.562 141.859 123.73 141.691C123.898 141.523 124.106 141.439 124.354 141.439C124.594 141.439 124.798 141.523 124.966 141.691C125.134 141.859 125.218 142.067 125.218 142.315C125.218 142.563 125.134 142.771 124.966 142.939C124.798 143.107 124.594 143.191 124.354 143.191ZM126.241 139.795C126.241 139.115 126.377 138.519 126.649 138.007C126.929 137.487 127.313 137.087 127.801 136.807C128.289 136.527 128.849 136.387 129.481 136.387C130.281 136.387 130.941 136.579 131.461 136.963C131.989 137.339 132.345 137.879 132.529 138.583H131.053C130.933 138.255 130.741 137.999 130.477 137.815C130.213 137.631 129.881 137.539 129.481 137.539C128.921 137.539 128.473 137.739 128.137 138.139C127.809 138.531 127.645 139.083 127.645 139.795C127.645 140.507 127.809 141.063 128.137 141.463C128.473 141.863 128.921 142.063 129.481 142.063C130.273 142.063 130.797 141.715 131.053 141.019H132.529C132.337 141.691 131.977 142.227 131.449 142.627C130.921 143.019 130.265 143.215 129.481 143.215C128.849 143.215 128.289 143.075 127.801 142.795C127.313 142.507 126.929 142.107 126.649 141.595C126.377 141.075 126.241 140.475 126.241 139.795ZM136.76 143.215C136.136 143.215 135.572 143.075 135.068 142.795C134.564 142.507 134.168 142.107 133.88 141.595C133.592 141.075 133.448 140.475 133.448 139.795C133.448 139.123 133.596 138.527 133.892 138.007C134.188 137.487 134.592 137.087 135.104 136.807C135.616 136.527 136.188 136.387 136.82 136.387C137.452 136.387 138.024 136.527 138.536 136.807C139.048 137.087 139.452 137.487 139.748 138.007C140.044 138.527 140.192 139.123 140.192 139.795C140.192 140.467 140.04 141.063 139.736 141.583C139.432 142.103 139.016 142.507 138.488 142.795C137.968 143.075 137.392 143.215 136.76 143.215ZM136.76 142.027C137.112 142.027 137.44 141.943 137.744 141.775C138.056 141.607 138.308 141.355 138.5 141.019C138.692 140.683 138.788 140.275 138.788 139.795C138.788 139.315 138.696 138.911 138.512 138.583C138.328 138.247 138.084 137.995 137.78 137.827C137.476 137.659 137.148 137.575 136.796 137.575C136.444 137.575 136.116 137.659 135.812 137.827C135.516 137.995 135.28 138.247 135.104 138.583C134.928 138.911 134.84 139.315 134.84 139.795C134.84 140.507 135.02 141.059 135.38 141.451C135.748 141.835 136.208 142.027 136.76 142.027ZM149.549 136.387C150.069 136.387 150.533 136.495 150.941 136.711C151.357 136.927 151.681 137.247 151.913 137.671C152.153 138.095 152.273 138.607 152.273 139.207V143.107H150.917V139.411C150.917 138.819 150.769 138.367 150.473 138.055C150.177 137.735 149.773 137.575 149.261 137.575C148.749 137.575 148.341 137.735 148.037 138.055C147.741 138.367 147.593 138.819 147.593 139.411V143.107H146.237V139.411C146.237 138.819 146.089 138.367 145.793 138.055C145.497 137.735 145.093 137.575 144.581 137.575C144.069 137.575 143.661 137.735 143.357 138.055C143.061 138.367 142.913 138.819 142.913 139.411V143.107H141.545V136.495H142.913V137.251C143.137 136.979 143.421 136.767 143.765 136.615C144.109 136.463 144.477 136.387 144.869 136.387C145.397 136.387 145.869 136.499 146.285 136.723C146.701 136.947 147.021 137.271 147.245 137.695C147.445 137.295 147.757 136.979 148.181 136.747C148.605 136.507 149.061 136.387 149.549 136.387Z" fill="black"/>
</svg>
